<?xml version="1.0" standalone="no"?>
  <!DOCTYPE svg PUBLIC "-//W3C//DTD SVG 1.1//EN" "http://www.w3.org/Graphics/SVG/1.1/DTD/svg11.dtd" >
  <svg>
  <metadata>
  Created by font-carrier
  </metadata>
  <defs>
  <font id="Bitter-Bold" horiz-adv-x="1313" vert-adv-y="1313" >
    <font-face
      
      font-family="Bitter"
      
      font-weight="400"
      
      font-stretch="normal"
      
      units-per-em="1000"
      
      ascent="1090"
      
      descent="-270"
      
    />
      <missing-glyph />

      

      
      <glyph glyph-name="uni21" unicode="&#x21;" d="M247 765L229 261L109 256L91 765L247 765M85 78Q85 119 110.50 143.50Q136 168 171 168Q212 168 233.50 144.50Q255 121 255 78Q255 36 229.50 11.50Q204-13 168-13Q85-13 85 78Z"  horiz-adv-x="340" vert-adv-y="1000"  />

      
      <glyph glyph-name="uni22" unicode="&#x22;" d="M394 782L371 500L258 500L258 782L394 782M192 782L170 500L57 500L57 782L192 782Z"  horiz-adv-x="441" vert-adv-y="1000"  />

      
      <glyph glyph-name="uni23" unicode="&#x23;" d="M85 367L85 470L196 470L214 600L341 600L323 470L449 470L466 600L593 600L576 470L670 470L670 367L562 367L546 244L645 244L645 141L532 141L514 0L387 0L405 141L280 141L261 0L134 0L153 141L60 141L60 244L166 244L183 367L85 367M310 367L293 244L419 244L435 367L310 367Z"  horiz-adv-x="730" vert-adv-y="1000"  />

      
      <glyph glyph-name="uni24" unicode="&#x24;" d="M332-146L225-146L225-11Q184-9 141.50-1Q99 7 77 14L55 21L55 198L147 198L162 123Q196 105 249 105Q297 105 329 123.50Q361 142 361 176Q361 197 344 213Q327 229 300 239.50Q273 250 240.50 260.50Q208 271 175.50 286.50Q143 302 116 322.50Q89 343 72 378.50Q55 414 55 460Q55 536 101 584Q147 632 225 647L225 765L332 765L332 651Q370 648 409 639Q448 630 468 622L488 615L484 451L398 451L379 525Q337 540 299 540Q252 540 227 522.50Q202 505 202 477Q202 448 233.50 428.50Q265 409 309.50 394.50Q354 380 399 360Q444 340 475.50 299Q507 258 507 198Q507 117 459.50 64.50Q412 12 332-5L332-146Z"  horiz-adv-x="552" vert-adv-y="1000"  />

      
      <glyph glyph-name="uni25" unicode="&#x25;" d="M179-8L597 712L742 712L324-8L179-8M55 529Q55 616 106 666.50Q157 717 235 717Q311 717 357.50 671Q404 625 404 540Q404 454 353 402Q302 350 223 350Q146 350 100.50 394.50Q55 439 55 529M170 533Q170 437 228 437Q289 437 289 536Q289 631 230 631Q170 631 170 533M519 165Q519 252 570 302.50Q621 353 699 353Q775 353 821.50 307Q868 261 868 176Q868 90 817 38Q766-14 687-14Q610-14 564.50 30.50Q519 75 519 165M634 169Q634 73 692 73Q753 73 753 172Q753 267 694 267Q634 267 634 169Z"  horiz-adv-x="935" vert-adv-y="1000"  />

      
      <glyph glyph-name="uni26" unicode="&#x26;" d="M426 517Q419 544 410 582Q376 595 320 595Q274 595 249.50 572Q225 549 225 516Q225 473 258.50 449Q292 425 340 425L647 425L647 340L577 317L577 211Q577 107 504.50 47.50Q432-12 308-12Q181-12 118 42Q55 96 55 188Q55 225 70.50 258.50Q86 292 109.50 314Q133 336 150 348.50Q167 361 182 368Q130 400 109 427Q76 470 76 526Q76 619 143.50 668Q211 717 328 717Q380 717 440 702Q500 687 525 675L520 517L426 517M432 225L432 317L357 317Q292 317 251 290Q210 263 210 209Q210 162 239 136Q268 110 318 110Q371 110 401.50 140Q432 170 432 225Z"  horiz-adv-x="677" vert-adv-y="1000"  />

      
      <glyph glyph-name="uni27" unicode="&#x27;" d="M192 782L170 500L57 500L57 782L192 782Z"  horiz-adv-x="240" vert-adv-y="1000"  />

      
      <glyph glyph-name="uni28" unicode="&#x28;" d="M220 770L350 770Q278 660 236 530Q194 400 194 282Q194 152 235.50 13Q277-126 349-230L220-230Q133-107 93.50 11.50Q54 130 54 280Q54 418 94 531.50Q134 645 220 770Z"  horiz-adv-x="353" vert-adv-y="1000"  />

      
      <glyph glyph-name="uni29" unicode="&#x29;" d="M-1 770L129 770Q215 645 255 531.50Q295 418 295 280Q295 130 255.50 11Q216-108 129-230L0-230Q72-126 113.50 13Q155 152 155 282Q155 400 113 530Q71 660-1 770Z"  horiz-adv-x="350" vert-adv-y="1000"  />

      
      <glyph glyph-name="uni2a" unicode="&#x2a;" d="M167 617L153 736L246 738L237 616L348 665L379 575L257 550L339 455L266 400L201 511L212 555L257 550L220 576L237 616L201 587L167 617L185 574L146 552L191 555L201 511L141 400L64 454L146 552L22 573L52 662L167 617Z"  horiz-adv-x="414" vert-adv-y="1000"  />

      
      <glyph glyph-name="uni2b" unicode="&#x2b;" d="M42 211L42 329L244 329L244 533L377 533L377 329L577 329L577 211L377 211L377 0L244 0L244 211L42 211Z"  horiz-adv-x="620" vert-adv-y="1000"  />

      
      <glyph glyph-name="uni2c" unicode="&#x2c;" d="M71 79Q71 119 95.50 143.50Q120 168 157 168Q195 168 218 144Q241 120 241 76Q241-37 103-185L40-133Q100-53 100-13Q100-1 85.50 26Q71 53 71 79Z"  horiz-adv-x="303" vert-adv-y="1000"  />

      
      <glyph glyph-name="uni2d" unicode="&#x2d;" d="M57 210L57 335L340 335L340 210L57 210Z"  horiz-adv-x="395" vert-adv-y="1000"  />

      
      <glyph glyph-name="uni2e" unicode="&#x2e;" d="M65 78Q65 119 90.50 143.50Q116 168 151 168Q192 168 213.50 144.50Q235 121 235 78Q235 36 210 11.50Q185-13 149-13Q108-13 86.50 10.50Q65 34 65 78Z"  horiz-adv-x="300" vert-adv-y="1000"  />

      
      <glyph glyph-name="uni2f" unicode="&#x2f;" d="M20 0L353 705L506 705L172 0L20 0Z"  horiz-adv-x="516" vert-adv-y="1000"  />

      
      <glyph glyph-name="uni30" unicode="&#x30;" d="M124.50 623Q124.50 623 156.75 670Q189 717 332 717Q475 717 532.50 629.50Q590 542 590 362Q590-13 322-13Q185-13 122.50 77.50Q60 168 60 347Q60 529 124.50 623M405 540.50Q405 540.50 394 566.25Q383 592 326 592Q269 592 245.50 539Q222 486 222 352Q222 222 246 167Q270 112 326 112Q382 112 404.50 167Q427 222 427 357Q427 489 405 540.50Z"  horiz-adv-x="645" vert-adv-y="1000"  />

      
      <glyph glyph-name="uni31" unicode="&#x31;" d="M516 115L516 0L86 0L86 115L226 115L226 545L73 447L15 553L253 705L381 705L381 115L516 115Z"  horiz-adv-x="538" vert-adv-y="1000"  />

      
      <glyph glyph-name="uni32" unicode="&#x32;" d="M557 122L557 0L40 0L40 122Q118 185 159 219Q200 253 249.50 298.50Q299 344 322 372.50Q345 401 361 433.50Q377 466 377 495Q377 541 345 568Q313 595 260 595Q236 595 213 590.50Q190 586 178 582L167 577L157 492L52 492L47 677Q160 717 267 717Q397 717 468.50 671.50Q540 626 540 520Q540 469 522.50 422Q505 375 464 324.50Q423 274 377.50 230.50Q332 187 257 122L557 122Z"  horiz-adv-x="607" vert-adv-y="1000"  />

      
      <glyph glyph-name="uni33" unicode="&#x33;" d="M517 537Q517 473 485 428.50Q453 384 392 368Q455 354 493.50 310.50Q532 267 532 210Q532 151 507.50 107Q483 63 441.50 37.50Q400 12 350.50 0Q301-12 245-12Q188-12 133 1.50Q78 15 52 28L25 42L67 152Q157 110 245 110Q306 110 339 136Q372 162 372 212Q372 258 335 284Q298 310 230 310L152 310L152 415L235 415Q365 415 365 512Q365 550 336 572.50Q307 595 255 595Q233 595 208.50 591.50Q184 588 170 584L157 580L147 500L42 500L37 675Q160 717 260 717Q517 717 517 537Z"  horiz-adv-x="592" vert-adv-y="1000"  />

      
      <glyph glyph-name="uni34" unicode="&#x34;" d="M595 265L595 142L495 142L495 0L341 0L341 142L30 142L15 260Q294 671 328 720L495 705L495 265L595 265M165 265L343 265L343 529L165 265Z"  horiz-adv-x="627" vert-adv-y="1000"  />

      
      <glyph glyph-name="uni35" unicode="&#x35;" d="M17 42L60 152Q150 110 237 110Q287 110 319 136.50Q351 163 351 210Q351 266 304.50 291.50Q258 317 165 317L57 317L74 705L484 705L481 582L216 582L209 432Q354 432 435.50 377.50Q517 323 517 225Q517 115 439.50 51.50Q362-12 253-12Q193-12 134 1.50Q75 15 46 28L17 42Z"  horiz-adv-x="560" vert-adv-y="1000"  />

      
      <glyph glyph-name="uni36" unicode="&#x36;" d="M510 590Q480 595 432 595Q372 595 327 574.50Q282 554 260.50 525Q239 496 226 467Q213 438 211 418L209 397Q280 440 365 440Q461 440 523 385.50Q585 331 585 230Q585 125 510 56Q435-13 322-13Q193-13 122.50 73Q52 159 52 295Q52 484 147.50 600.50Q243 717 427 717Q453 717 475.50 714.50Q498 712 508 710L517 707L510 590M205 287L205 263Q205 185 237.50 147.50Q270 110 321 110Q369 110 398 138.50Q427 167 427 215Q427 322 319 322Q291 322 262.50 313Q234 304 220 296L205 287Z"  horiz-adv-x="617" vert-adv-y="1000"  />

      
      <glyph glyph-name="uni37" unicode="&#x37;" d="M5 705L515 705L515 597L253 0L88 0L347 580L126 580L106 487L5 487L5 705Z"  horiz-adv-x="531" vert-adv-y="1000"  />

      
      <glyph glyph-name="uni38" unicode="&#x38;" d="M556 528Q556 429 447 378Q573 319 573 206Q573 108 497 47.50Q421-13 298-13Q177-13 111 43.50Q45 100 45 192Q45 297 173 361Q68 420 68 521Q68 614 136 665.50Q204 717 321 717Q434 717 495 665Q556 613 556 528M415 202Q415 240 385 262.50Q355 285 295 308Q202 266 202 199Q202 156 229.50 133Q257 110 308 110Q359 110 387 134Q415 158 415 202M217 521Q217 486 244.50 465Q272 444 325 424Q406 458 406 521Q406 554 380 574.50Q354 595 311 595Q267 595 242 574.50Q217 554 217 521Z"  horiz-adv-x="618" vert-adv-y="1000"  />

      
      <glyph glyph-name="uni39" unicode="&#x39;" d="M107 114Q137 110 185 110Q246 110 291.50 130Q337 150 358.50 179Q380 208 392.50 237Q405 266 406 286L408 306Q337 265 252 265Q156 265 94 319Q32 373 32 474Q32 580 107 648.50Q182 717 295 717Q424 717 494.50 631.50Q565 546 565 410Q565 287 526 193.50Q487 100 401 43.50Q315-13 190-13Q164-13 141.50-10.50Q119-8 110-6L100-3L107 114M412 418L412 445Q412 521 379.50 558Q347 595 296 595Q248 595 219 566.50Q190 538 190 489Q190 438 217.50 410Q245 382 298 382Q326 382 354.50 391Q383 400 398 409L412 418Z"  horiz-adv-x="617" vert-adv-y="1000"  />

      
      <glyph glyph-name="uni3a" unicode="&#x3a;" d="M67 78Q67 119 92.50 143.50Q118 168 154 168Q237 168 237 78Q237 36 212 11.50Q187-13 151-13Q110-13 88.50 10.50Q67 34 67 78M67 378Q67 420 92.50 444.50Q118 469 154 469Q237 469 237 378Q237 337 211.50 312.50Q186 288 151 288Q110 288 88.50 311.50Q67 335 67 378Z"  horiz-adv-x="305" vert-adv-y="1000"  />

      
      <glyph glyph-name="uni3b" unicode="&#x3b;" d="M106-185L42-133Q102-53 102-13Q102-1 87.50 26Q73 53 73 79Q73 119 97.50 143.50Q122 168 160 168Q198 168 220.50 144Q243 120 243 76Q243-36 106-185M73 378Q73 420 98 444.50Q123 469 159 469Q200 469 221.50 445.50Q243 422 243 378Q243 337 217.50 312.50Q192 288 157 288Q116 288 94.50 311.50Q73 335 73 378Z"  horiz-adv-x="311" vert-adv-y="1000"  />

      
      <glyph glyph-name="uni3c" unicode="&#x3c;" d="M202 267L557 122L557-10L40 208L40 328L557 547L557 417L202 267Z"  horiz-adv-x="597" vert-adv-y="1000"  />

      
      <glyph glyph-name="uni3d" unicode="&#x3d;" d="M50 107L50 222L550 222L550 107L50 107M50 322L50 437L550 437L550 322L50 322Z"  horiz-adv-x="600" vert-adv-y="1000"  />

      
      <glyph glyph-name="uni3e" unicode="&#x3e;" d="M40 122L395 267L40 417L40 547L557 328L557 208L40-10L40 122Z"  horiz-adv-x="597" vert-adv-y="1000"  />

      
      <glyph glyph-name="uni3f" unicode="&#x3f;" d="M94 78Q94 119 119.50 143.50Q145 168 180 168Q221 168 242.50 144.50Q264 121 264 78Q264 36 238.50 11.50Q213-13 177-13Q94-13 94 78M236 253L103 247Q94 312 94 345Q94 377 120.50 410.50Q147 444 178.50 467.50Q210 491 236.50 523Q263 555 263 586Q263 652 173 652Q154 652 131.50 649Q109 646 96 644L84 641L65 745Q148 769 214 769Q268 769 311 755.50Q354 742 384 706Q414 670 414 614Q414 571 395.50 533Q377 495 350.50 467Q324 439 297.50 414Q271 389 252.50 362.50Q234 336 234 311L236 253Z"  horiz-adv-x="464" vert-adv-y="1000"  />

      
      <glyph glyph-name="uni40" unicode="&#x40;" d="M593 147Q508 147 473 209Q467 203 457 193Q447 183 416 167Q385 151 355 151Q302 151 272 182Q242 213 242 266Q242 385 410 385L456 385L456 419Q456 466 398 466Q378 466 351 462Q324 458 307 454L290 449L271 523Q351 553 422 553Q499 553 534 523Q569 493 569 427L569 261Q569 226 604 226Q635 226 652.50 260.50Q670 295 670 361Q670 483 604.50 551.50Q539 620 416 620Q292 620 224.50 549.50Q157 479 157 350Q157 220 215.50 151Q274 82 393 82Q423 82 454.50 88Q486 94 502 100L518 107L559 25Q551 21 537 14Q523 7 478-4Q433-15 386-15Q222-15 134.50 77.50Q47 170 47 345Q47 517 148.50 617Q250 717 421 717Q588 717 684 626Q780 535 780 366Q780 263 727.50 205Q675 147 593 147M347 275Q347 258 358 248Q369 238 388 238Q422 238 456 272L456 319L417 319Q347 319 347 275Z"  horiz-adv-x="820" vert-adv-y="1000"  />

      
      <glyph glyph-name="uni41" unicode="&#x41;" d="M465 705L680 110L750 87L750 0L432 0L432 87L507 110L483 185L261 185L236 111L314 87L314 0L12 0L12 87L85 110L305 702L465 705M375 529L296 292L450 292L375 529Z"  horiz-adv-x="762" vert-adv-y="1000"  />

      
      <glyph glyph-name="uni42" unicode="&#x42;" d="M267 705L372 705Q473 705 532.50 661.50Q592 618 592 532Q592 405 472 367Q615 326 615 207Q615 0 355 0L40 0L40 87Q65 96 115 112L115 587L40 617L40 700L267 705M325 312L267 312L267 117L350 117Q402 117 429.50 141Q457 165 457 207Q457 261 425 286.50Q393 312 325 312M267 587L267 417L325 417Q437 417 437 510Q437 548 413.50 567.50Q390 587 352 587L267 587Z"  horiz-adv-x="657" vert-adv-y="1000"  />

      
      <glyph glyph-name="uni43" unicode="&#x43;" d="M484 576Q437 592 372 592Q207 592 207 347Q207 117 377 117Q421 117 468.50 134.50Q516 152 542 170L567 187L622 97Q618 93 610 85.50Q602 78 575.50 59Q549 40 520 26Q491 12 447.50 0Q404-12 360-12Q207-12 123.50 78.50Q40 169 40 342Q40 517 131 617Q222 717 377 717Q431 717 489 705.50Q547 694 578 682L610 670L605 480L507 480L484 576Z"  horiz-adv-x="652" vert-adv-y="1000"  />

      
      <glyph glyph-name="uni44" unicode="&#x44;" d="M52 0L52 87L127 112L127 587L52 617L52 700L282 705L377 705Q529 705 612 617Q695 529 695 362Q695 194 605 97Q515 0 362 0L52 0M282 587L282 117L365 117Q443 117 485 172.50Q527 228 527 357Q527 479 487.50 533Q448 587 372 587L282 587Z"  horiz-adv-x="730" vert-adv-y="1000"  />

      
      <glyph glyph-name="uni45" unicode="&#x45;" d="M285 587L285 420L487 420L487 310L285 310L285 117L462 117L485 200L577 200L577 0L55 0L55 87L130 112L130 587L55 617L55 700L285 705L565 705L565 512L472 512L447 587L285 587Z"  horiz-adv-x="627" vert-adv-y="1000"  />

      
      <glyph glyph-name="uni46" unicode="&#x46;" d="M367 87L367 0L45 0L45 87Q70 96 120 112L120 587L45 617L45 700L275 705L555 705L555 515L462 515L437 587L275 587L275 410L482 410L482 300L275 300L275 112Q353 91 367 87Z"  horiz-adv-x="580" vert-adv-y="1000"  />

      
      <glyph glyph-name="uni47" unicode="&#x47;" d="M527 490L502 576Q455 592 389 592Q222 592 222 347Q222 115 392 115Q415 115 442.50 119.50Q470 124 486 128L502 133L502 259L427 282L427 364L715 369L715 282L647 259L647 55Q635 47 613.50 36Q592 25 521 6.50Q450-12 375-12Q222-12 138.50 78.50Q55 169 55 342Q55 517 146 617Q237 717 392 717Q446 717 504 705.50Q562 694 594 682L625 670L620 490L527 490Z"  horiz-adv-x="750" vert-adv-y="1000"  />

      
      <glyph glyph-name="uni48" unicode="&#x48;" d="M342 87L342 0L35 0L35 87L110 112L110 587L35 617L35 700L342 705L342 617L265 587L265 422L527 422L527 587L450 617L450 700L757 705L757 617L682 587L682 112L757 87L757 0L450 0L450 87L527 112L527 305L265 305L265 112L342 87Z"  horiz-adv-x="792" vert-adv-y="1000"  />

      
      <glyph glyph-name="uni49" unicode="&#x49;" d="M340 87L340 0L35 0L35 87L110 112L110 587L35 617L35 700L340 705L340 617L265 587L265 112L340 87Z"  horiz-adv-x="375" vert-adv-y="1000"  />

      
      <glyph glyph-name="uni4a" unicode="&#x4a;" d="M272 587L272 106Q272-30 221.50-93.50Q171-157 44-157L-32-150L-19-50L29-50Q117-50 117 46L117 587L42 617L42 700L347 705L347 617L272 587Z"  horiz-adv-x="382" vert-adv-y="1000"  />

      
      <glyph glyph-name="uni4b" unicode="&#x4b;" d="M347 87L347 0L40 0L40 87L115 112L115 587L40 617L40 700L347 705L347 617L270 587L270 415L338 415L505 700L687 705L687 617L598 589L466 371L653 112L727 87L727 0L420 0L420 87L478 111L343 305L270 305L270 112L347 87Z"  horiz-adv-x="735" vert-adv-y="1000"  />

      
      <glyph glyph-name="uni4c" unicode="&#x4c;" d="M262 587L262 117L415 117L437 230L532 230L532 0L32 0L32 87L107 112L107 587L32 617L32 700L337 705L337 617L262 587Z"  horiz-adv-x="540" vert-adv-y="1000"  />

      
      <glyph glyph-name="uni4d" unicode="&#x4d;" d="M322 87L322 0L37 0L37 87L112 112L112 587L37 617L37 700L295 705L445 372L602 700L842 705L842 617L770 587L770 112L845 87L845 0L547 0L547 87L625 112L625 491Q607 444 583.50 393.50Q560 343 530.50 283.50Q501 224 485 190L377 185L262 422L245 474L245 112L322 87Z"  horiz-adv-x="877" vert-adv-y="1000"  />

      
      <glyph glyph-name="uni4e" unicode="&#x4e;" d="M325 87L325 0L35 0L35 87L110 112L110 587L35 617L35 700L275 705L545 243L545 587L472 617L472 700L757 705L757 617L682 587L682 0L515 0L247 453L247 112L325 87Z"  horiz-adv-x="785" vert-adv-y="1000"  />

      
      <glyph glyph-name="uni4f" unicode="&#x4f;" d="M385 717Q535 717 617.50 623.50Q700 530 700 362Q700 193 607.50 90Q515-13 365-13Q215-13 135 79Q55 171 55 347Q55 519 143.50 618Q232 717 385 717M380 592Q302 592 262 536.50Q222 481 222 352Q222 229 258.50 170.50Q295 112 370 112Q449 112 490.50 169.50Q532 227 532 357Q532 479 494 535.50Q456 592 380 592Z"  horiz-adv-x="755" vert-adv-y="1000"  />

      
      <glyph glyph-name="uni50" unicode="&#x50;" d="M347 87L347 0L42 0L42 87L117 112L117 587L42 617L42 700L272 705L367 705Q481 705 545.50 649Q610 593 610 495Q610 371 536.50 308Q463 245 325 245L272 245L272 112L347 87M272 587L272 362L325 362Q388 362 421.50 391Q455 420 455 475Q455 525 428.50 556Q402 587 352 587L272 587Z"  horiz-adv-x="630" vert-adv-y="1000"  />

      
      <glyph glyph-name="uni51" unicode="&#x51;" d="M542-147L340-11Q201-2 128 89Q55 180 55 347Q55 518 146 617.50Q237 717 392 717Q545 717 627.50 623.50Q710 530 710 362Q710 233 655 141Q600 49 502 11Q510 6 546.50-18.50Q583-43 600-53Q617-63 645.50-74Q674-85 695-85Q709-85 732-76.50Q755-68 771-59L787-50Q797-65 816-94Q835-123 840-130Q828-138 809-149.50Q790-161 744.50-180.50Q699-200 670-200Q620-200 542-147M387 592Q302 592 261 534.50Q220 477 220 352Q220 112 377 112Q462 112 503.50 172Q545 232 545 357Q545 478 507 535Q469 592 387 592Z"  horiz-adv-x="742" vert-adv-y="1000"  />

      
      <glyph glyph-name="uni52" unicode="&#x52;" d="M342 87L342 0L40 0L40 87L115 112L115 587L40 617L40 700L270 705L346 705Q471 705 538.50 653.50Q606 602 606 501Q606 368 493 312Q518 283 535 247L602 110L670 87L670 0L485 0L401 185Q374 245 358.50 261Q343 277 305 277L270 277L270 112L342 87M270 587L270 382L327 382Q386 382 419 409.50Q452 437 452 487Q452 532 425 559.50Q398 587 352 587L270 587Z"  horiz-adv-x="680" vert-adv-y="1000"  />

      
      <glyph glyph-name="uni53" unicode="&#x53;" d="M162 217L177 133Q217 112 275 112Q326 112 361 133.50Q396 155 396 193Q396 220 371 240Q346 260 308.50 271Q271 282 227 300.50Q183 319 145.50 340.50Q108 362 83 404.50Q58 447 58 505Q58 606 128.50 661.50Q199 717 312 717Q362 717 417 707Q472 697 502 687L532 677L527 495L435 495L410 580Q365 595 322 595Q271 595 243.50 575Q216 555 216 524Q216 497 241 477Q266 457 303.50 445.50Q341 434 384.50 416Q428 398 465.50 377Q503 356 528 315Q553 274 553 219Q553 110 477.50 48.50Q402-13 283-13Q233-13 177-3.50Q121 6 90 16L60 25L60 217L162 217Z"  horiz-adv-x="604" vert-adv-y="1000"  />

      
      <glyph glyph-name="uni54" unicode="&#x54;" d="M140 0L140 87L222 112L222 587L127 587L102 492L10 492L10 702L590 705L590 492L497 492L472 587L377 587L377 112L460 87L460 0L140 0Z"  horiz-adv-x="600" vert-adv-y="1000"  />

      
      <glyph glyph-name="uni55" unicode="&#x55;" d="M262 587L262 270Q262 183 291 146.50Q320 110 392 110Q468 110 494 150.50Q520 191 520 285L520 587L442 617L442 700L750 705L750 617L675 587L675 285Q675 135 609 61.50Q543-12 387-12Q239-12 173 56Q107 124 107 270L107 587L32 617L32 700L340 705L340 617L262 587Z"  horiz-adv-x="782" vert-adv-y="1000"  />

      
      <glyph glyph-name="uni56" unicode="&#x56;" d="M277 0L75 589L7 617L7 700L317 705L317 617L243 588L335 299L367 176L399 294L498 587L422 617L422 700L721 705L721 617L648 587L437 0L277 0Z"  horiz-adv-x="729" vert-adv-y="1000"  />

      
      <glyph glyph-name="uni57" unicode="&#x57;" d="M237 0L75 588L5 617L5 700L302 705L302 617L229 587L315 225L455 697L590 705L724 226L820 587L745 617L745 700L1030 705L1030 617L958 587L787 0L645 0L514 475Q490 377 435.50 198.50Q381 20 375 0L237 0Z"  horiz-adv-x="1035" vert-adv-y="1000"  />

      
      <glyph glyph-name="uni58" unicode="&#x58;" d="M307 87L307 0L10 0L10 87L72 108L274 354L88 598L30 617L30 700L330 705L330 617L280 600L383 461L481 596L427 617L427 700L715 705L715 617L649 597L465 362L660 107L730 87L730 0L420 0L420 87L466 103L356 253L244 107L307 87Z"  horiz-adv-x="740" vert-adv-y="1000"  />

      
      <glyph glyph-name="uni59" unicode="&#x59;" d="M485 87L485 0L180 0L180 87L255 112L255 244L72 590L7 617L7 700L290 705L290 617L239 596L339 379L445 595L390 617L390 700L660 705L660 617L591 590L410 245L410 112L485 87Z"  horiz-adv-x="667" vert-adv-y="1000"  />

      
      <glyph glyph-name="uni5a" unicode="&#x5a;" d="M582 0L30 0L30 102L385 587L175 587L150 497L55 497L55 705L585 705L585 592L237 117L465 117L487 220L582 220L582 0Z"  horiz-adv-x="615" vert-adv-y="1000"  />

      
      <glyph glyph-name="uni5b" unicode="&#x5b;" d="M317-123L317-225L67-230L67 770L317 765L317 662L198 651L198-112L317-123Z"  horiz-adv-x="352" vert-adv-y="1000"  />

      
      <glyph glyph-name="uni5c" unicode="&#x5c;" d="M160 705L493 0L341 0L7 705L160 705Z"  horiz-adv-x="506" vert-adv-y="1000"  />

      
      <glyph glyph-name="uni5d" unicode="&#x5d;" d="M32-225L32-122L152-111L152 651L32 662L32 765L282 770L282-230L32-225Z"  horiz-adv-x="352" vert-adv-y="1000"  />

      
      <glyph glyph-name="uni5e" unicode="&#x5e;" d="M295 565L175 320L50 320L242 705L352 705L545 320L416 320L295 565Z"  horiz-adv-x="595" vert-adv-y="1000"  />

      
      <glyph glyph-name="uni5f" unicode="&#x5f;" d="M0-180L0-80L500-80L500-180L0-180Z"  horiz-adv-x="500" vert-adv-y="1000"  />

      
      <glyph glyph-name="uni60" unicode="&#x60;" d="M299 627L72 739L130 848L346 707L299 627Z"  horiz-adv-x="418" vert-adv-y="1000"  />

      
      <glyph glyph-name="uni61" unicode="&#x61;" d="M570 7L372 0L354 65Q345 57 330 44.50Q315 32 272.50 11Q230-10 192-10Q119-10 78 31Q37 72 37 147Q37 312 277 312L347 312L347 367Q347 442 270 442Q247 442 225 438Q203 434 192 430L182 427L167 362L77 362L70 510Q191 550 287 550Q401 550 448 505.50Q495 461 495 352L495 105L570 87L570 7M181 162Q181 102 240 102Q264 102 290.50 116.50Q317 131 332 146L347 160L347 227L290 227Q232 227 206.50 211.50Q181 196 181 162Z"  horiz-adv-x="592" vert-adv-y="1000"  />

      
      <glyph glyph-name="uni62" unicode="&#x62;" d="M-10 767L212 775L212 497Q281 550 355 550Q455 550 507.50 481Q560 412 560 285Q560 142 486 65Q412-12 270-12Q221-12 170-6.50Q119-1 92 4L65 10L65 667L-10 687L-10 767M212 387L212 113Q235 105 286 105Q405 105 405 275Q405 432 307 432Q280 432 256.50 421Q233 410 222 398L212 387Z"  horiz-adv-x="595" vert-adv-y="1000"  />

      
      <glyph glyph-name="uni63" unicode="&#x63;" d="M455 160L505 75Q408-10 290-10Q167-10 98.50 62Q30 134 30 262Q30 396 102.50 473Q175 550 305 550Q343 550 387 541.50Q431 533 456 524L480 515L475 352L385 352L371 424Q342 432 302 432Q246 432 215.50 394.50Q185 357 185 282Q185 197 216.50 152Q248 107 310 107Q330 107 348 110.50Q366 114 383 121Q400 128 409.50 133Q419 138 435.50 148Q452 158 455 160Z"  horiz-adv-x="515" vert-adv-y="1000"  />

      
      <glyph glyph-name="uni64" unicode="&#x64;" d="M607 7L397 0L388 53Q325-10 237-10Q134-10 83 60Q32 130 32 257Q32 399 103.50 474.50Q175 550 315 550Q348 550 380 540L380 667L300 687L300 767L527 775L527 107L607 87L607 7M380 164L380 420Q355 435 302 435Q187 435 187 265Q187 107 283 107Q311 107 335.50 121.50Q360 136 370 150L380 164Z"  horiz-adv-x="625" vert-adv-y="1000"  />

      
      <glyph glyph-name="uni65" unicode="&#x65;" d="M524 240L192 237Q196 175 228.50 141Q261 107 312 107Q349 107 391 118.50Q433 130 456 142L480 154L523 74Q512 65 492 51Q472 37 412 13.50Q352-10 295-10Q168-10 101.50 60.50Q35 131 35 260Q35 393 106 471.50Q177 550 302 550Q412 550 471 487Q530 424 530 315L524 240M292 433Q251 433 225.50 405Q200 377 194 330L374 330Q374 433 292 433Z"  horiz-adv-x="557" vert-adv-y="1000"  />

      
      <glyph glyph-name="uni66" unicode="&#x66;" d="M142 530L142 575Q142 673 197 730Q252 787 355 787Q403 787 446.50 777.50Q490 768 510 759L530 750L527 602L440 602L425 676Q400 680 367 680Q290 680 290 592L290 530L420 530L417 430L290 430L290 105L386 80L386 0L62 0L62 80L142 105L142 430L52 430L52 515L142 530Z"  horiz-adv-x="465" vert-adv-y="1000"  />

      
      <glyph glyph-name="uni67" unicode="&#x67;" d="M42-110Q42-72 68-42Q94-12 120-1L147 10Q140 11 130 14Q120 17 103.50 34Q87 51 87 76Q87 107 139 189Q62 240 62 345Q62 444 128.50 497Q195 550 302 550Q369 550 420 526L592 530L592 450L510 436Q510 435 515 422.50Q520 410 523.50 393Q527 376 527 357Q527 253 462 202.50Q397 152 287 152Q275 152 263.50 153Q252 154 244.50 155.50Q237 157 236 157L232 90L380 90Q476 90 528 50Q580 10 580-65Q580-151 509.50-203Q439-255 300-255Q174-255 108-222Q42-189 42-110M297 447Q212 447 212 352Q212 252 292 252Q338 252 357.50 276Q377 300 377 352Q377 447 297 447M340-20L235-20Q230-22 222-27Q214-32 200.50-49Q187-66 187-85Q187-121 216.50-133Q246-145 312-145Q380-145 410-129Q440-113 440-77Q440-45 416.50-32.50Q393-20 340-20Z"  horiz-adv-x="615" vert-adv-y="1000"  />

      
      <glyph glyph-name="uni68" unicode="&#x68;" d="M25 767L252 775L252 482Q334 550 420 550Q495 550 535 502.50Q575 455 575 370L575 105L645 80L645 0L375 0L375 80L427 104L427 347Q427 427 361 427Q336 427 309 413.50Q282 400 267 387L252 374L252 105L305 80L305 0L25 0L25 80L105 105L105 667L25 687L25 767Z"  horiz-adv-x="667" vert-adv-y="1000"  />

      
      <glyph glyph-name="uni69" unicode="&#x69;" d="M35 532L262 540L262 105L332 80L332 0L35 0L35 80L115 105L115 432L35 452L35 532M96 705Q96 746 121.50 770.50Q147 795 182 795Q266 795 266 705Q266 663 240.50 638.50Q215 614 182 614Q141 614 118.50 637.50Q96 661 96 705Z"  horiz-adv-x="358" vert-adv-y="1000"  />

      
      <glyph glyph-name="uni6a" unicode="&#x6a;" d="M29-245L-47-238L-35-145L17-145Q61-145 80-120.50Q99-96 99-46L99 432L19 452L19 532L247 540L247 13Q247-122 199-183.50Q151-245 29-245M79 705Q79 745 103.50 770Q128 795 165 795Q249 795 249 705Q249 665 224.50 639.50Q200 614 165 614Q124 614 101.50 637.50Q79 661 79 705Z"  horiz-adv-x="319" vert-adv-y="1000"  />

      
      <glyph glyph-name="uni6b" unicode="&#x6b;" d="M25 767L252 775L252 337L317 337L386 443L342 457L342 537L600 542L600 457L530 444L437 311L549 104L625 80L625 0L440 0L316 245L252 245L252 105L307 80L307 0L25 0L25 80L105 105L105 667L25 687L25 767Z"  horiz-adv-x="635" vert-adv-y="1000"  />

      
      <glyph glyph-name="uni6c" unicode="&#x6c;" d="M25 767L256 775L256 105L351 80L351 0L25 0L25 80L105 105L105 667L25 687L25 767Z"  horiz-adv-x="358" vert-adv-y="1000"  />

      
      <glyph glyph-name="uni6d" unicode="&#x6d;" d="M892 370L892 105L960 80L960 0L692 0L692 80L745 105L745 340Q745 382 731.50 402Q718 422 687 422Q658 422 630.50 409Q603 396 590 383L576 370L576 105L628 80L628 0L376 0L376 80L428 105L428 340Q428 383 415 402.50Q402 422 371 422Q342 422 314 409Q286 396 272 383L259 370L259 105L312 80L312 0L35 0L35 80L112 105L112 433L36 452L36 532L242 540L249 469Q259 478 276 491.50Q293 505 339 527.50Q385 550 424 550Q523 550 560 464Q575 479 595 495Q615 511 658 530.50Q701 550 741 550Q816 550 854 503Q892 456 892 370Z"  horiz-adv-x="982" vert-adv-y="1000"  />

      
      <glyph glyph-name="uni6e" unicode="&#x6e;" d="M35 532L242 540L249 471Q260 480 278 492.50Q296 505 344.50 526.50Q393 548 433 548Q505 548 543.50 500.50Q582 453 582 370L582 105Q595 101 619 92Q643 83 652 80L652 0L382 0L382 80L435 105L435 347Q435 382 416.50 404.50Q398 427 367 427Q339 427 312.50 412.50Q286 398 273 384L260 370L260 105L312 80L312 0L35 0L35 80L112 105L112 432L35 452L35 532Z"  horiz-adv-x="675" vert-adv-y="1000"  />

      
      <glyph glyph-name="uni6f" unicode="&#x6f;" d="M305 550Q426 550 491.50 479.50Q557 409 557 280Q557 146 484.50 68Q412-10 290-10Q35-10 35 265Q35 399 108 474.50Q181 550 305 550M300 435Q243 435 216.50 398Q190 361 190 270Q190 184 215 144.50Q240 105 295 105Q350 105 376 144Q402 183 402 275Q402 356 377.50 395.50Q353 435 300 435Z"  horiz-adv-x="592" vert-adv-y="1000"  />

      
      <glyph glyph-name="uni70" unicode="&#x70;" d="M100 432L20 452L20 532L230 540L239 484Q247 491 260.50 502Q274 513 312.50 531.50Q351 550 387 550Q489 550 542 479.50Q595 409 595 285Q595 143 526.50 66.50Q458-10 322-10Q287-10 247 0L247-127L342-150L342-230L22-230L22-150L100-127L100 432M247 377L247 110Q272 95 325 95Q387 95 413.50 137.50Q440 180 440 267Q440 432 340 432Q311 432 288 418Q265 404 256 390L247 377Z"  horiz-adv-x="630" vert-adv-y="1000"  />

      
      <glyph glyph-name="uni71" unicode="&#x71;" d="M527-125L602-150L602-230L285-230L285-150L380-125L380 44Q373 38 359.50 29Q346 20 308.50 5Q271-10 237-10Q135-10 83.50 60.50Q32 131 32 255Q32 394 106 472Q180 550 322 550Q371 550 422 544Q473 538 500 532L527 526L527-125M380 152L380 427Q352 435 302 435Q187 435 187 265Q187 186 210.50 146.50Q234 107 286 107Q314 107 337.50 118.50Q361 130 370 141L380 152Z"  horiz-adv-x="592" vert-adv-y="1000"  />

      
      <glyph glyph-name="uni72" unicode="&#x72;" d="M35 532L242 540L251 471Q259 480 273 493Q287 506 323.50 528Q360 550 390 550Q414 550 436.50 545.50Q459 541 470 536L480 532L472 342L385 342L370 427Q344 427 317 413Q290 399 276 385L262 371L262 105L357 80L357 0L35 0L35 80L115 105L115 432L35 452L35 532Z"  horiz-adv-x="490" vert-adv-y="1000"  />

      
      <glyph glyph-name="uni73" unicode="&#x73;" d="M133 175L141 105Q174 95 223 95Q302 95 302 149Q302 172 275 188.50Q248 205 209 217Q170 229 131 245.50Q92 262 65 296Q38 330 38 379Q38 467 97 508.50Q156 550 244 550Q284 550 330.50 542.50Q377 535 404 528L430 520Q428 470 426 370L338 370L323 435Q297 445 257 445Q226 445 208 431.50Q190 418 190 394Q190 371 217.50 355Q245 339 283.50 327Q322 315 361 299.50Q400 284 427.50 251Q455 218 455 170Q455 85 392.50 37.50Q330-10 225-10Q183-10 137-4.50Q91 1 66 6L41 12L41 175L133 175Z"  horiz-adv-x="491" vert-adv-y="1000"  />

      
      <glyph glyph-name="uni74" unicode="&#x74;" d="M255-10Q172-10 141 43.50Q110 97 110 230L110 417L17 417L17 512L110 525L110 663L257 690L257 525L397 525L397 417L257 417L257 191Q257 141 268 121Q279 101 310 101Q346 101 389 124L425 52Q337-10 255-10Z"  horiz-adv-x="437" vert-adv-y="1000"  />

      
      <glyph glyph-name="uni75" unicode="&#x75;" d="M89 169L89 434L16 452L16 532L237 540L237 197Q237 156 250 136.50Q263 117 293 117Q321 117 350.50 130.50Q380 144 396 158L411 172L411 434L337 452L337 532L558 540L558 105L634 85L634 7L430 0L420 70Q417 67 410.50 61.50Q404 56 385 42Q366 28 346 17.50Q326 7 297.50-1.50Q269-10 243-10Q168-10 128.50 37Q89 84 89 169Z"  horiz-adv-x="655" vert-adv-y="1000"  />

      
      <glyph glyph-name="uni76" unicode="&#x76;" d="M302 150L390 442L332 455L332 535L594 540L594 455L537 442L376 0L211 0L53 439L5 455L5 535L267 540L267 455L211 445L302 150Z"  horiz-adv-x="599" vert-adv-y="1000"  />

      
      <glyph glyph-name="uni77" unicode="&#x77;" d="M509 545L618 162L677 440L616 455L616 535L872 540L872 455L819 443L686 0L533 0L454 255L436 333L411 224L338 0L186 0L50 441L6 455L6 535L268 540L268 455L205 443L271 162L377 523L509 545Z"  horiz-adv-x="878" vert-adv-y="1000"  />

      
      <glyph glyph-name="uni78" unicode="&#x78;" d="M405 535L572 540L572 455L510 442L395 270L508 100L582 80L582 0L310 0L310 80L341 91L288 179L180 0L10 0L10 80L85 100L195 265L74 442L20 455L20 535L279 540L279 455L249 449L301 361L405 535Z"  horiz-adv-x="592" vert-adv-y="1000"  />

      
      <glyph glyph-name="uni79" unicode="&#x79;" d="M241-1L63 439L10 455L10 535L277 540L277 455L221 445L310 165L395 442L337 455L337 535L606 540L606 455L544 442L397 32Q375-27 355.50-67.50Q336-108 304-151.50Q272-195 227-217.50Q182-240 125-240L28-232L42-125L107-125Q135-125 158.50-112.50Q182-100 198.50-76.50Q215-53 223-38Q231-23 241-1Z"  horiz-adv-x="611" vert-adv-y="1000"  />

      
      <glyph glyph-name="uni7a" unicode="&#x7a;" d="M62 540L482 540L482 447L225 105L378 105L397 195L485 195L485 0L50 0L50 92L311 435L167 435L150 357L62 357L62 540Z"  horiz-adv-x="517" vert-adv-y="1000"  />

      
      <glyph glyph-name="uni7b" unicode="&#x7b;" d="M253 570L253 465Q253 396 232.50 355Q212 314 161 295Q253 259 253 153L253-20Q253-80 278-101Q303-122 374-122L374-225L307-225Q207-225 166-176Q125-127 125-13L125 141Q125 191 104 218Q83 245 30 245L30 345Q83 345 104 372Q125 399 125 449L125 590Q125 687 170 731Q215 775 307 775L374 775L374 672Q303 672 278 651Q253 630 253 570Z"  horiz-adv-x="404" vert-adv-y="1000"  />

      
      <glyph glyph-name="uni7c" unicode="&#x7c;" d="M200-230L82-230L82 755L200 755L200-230Z"  horiz-adv-x="282" vert-adv-y="1000"  />

      
      <glyph glyph-name="uni7d" unicode="&#x7d;" d="M160 436L160 570Q160 630 135.50 651Q111 672 40 672L40 775L107 775Q200 775 244.50 730.50Q289 686 289 590L289 449Q289 399 310 372Q331 345 384 345L384 245Q331 245 310 218Q289 191 289 141L289-13Q289-127 247-176Q205-225 106-225L40-225L40-122Q111-122 135.50-101Q160-80 160-20L160 153Q160 259 253 295Q160 331 160 436Z"  horiz-adv-x="409" vert-adv-y="1000"  />

      
      <glyph glyph-name="uni7e" unicode="&#x7e;" d="M105 209L43 260Q45 265 49.50 273Q54 281 69 301Q84 321 101 336.50Q118 352 146 365Q174 378 204 378Q248 378 312.50 344.50Q377 311 411 311Q435 311 459 324.50Q483 338 495 352L507 366L573 316Q571 311 566.50 303Q562 295 546.50 274.50Q531 254 514 238Q497 222 470 209Q443 196 415 196Q372 196 302.50 229.50Q233 263 198 263Q174 263 151 249.50Q128 236 116 222L105 209Z"  horiz-adv-x="626" vert-adv-y="1000"  />

      
      <glyph glyph-name="unia1" unicode="&#xa1;" d="M252 466Q252 425 226.50 400.50Q201 376 166 376Q125 376 103.50 399.50Q82 423 82 466Q82 508 107.50 532.50Q133 557 169 557Q252 557 252 466M92-221L110 283L230 288L249-221L92-221Z"  horiz-adv-x="337" vert-adv-y="1000"  />

      
      <glyph glyph-name="unia2" unicode="&#xa2;" d="M331 0L223 0L223 110Q134 126 86 190Q38 254 38 353Q38 455 85.50 522Q133 589 223 608L223 705L331 705L331 614Q363 611 396.50 602.50Q430 594 448 587L465 580L460 428L375 428L361 497Q332 505 297 505Q185 505 185 372Q185 215 304 215Q319 215 334 217.50Q349 220 359.50 223Q370 226 383.50 232Q397 238 403 241.50Q409 245 421.50 252.50Q434 260 436 261L485 183Q415 121 331 108L331 0Z"  horiz-adv-x="510" vert-adv-y="1000"  />

      
      <glyph glyph-name="unia3" unicode="&#xa3;" d="M60 0L60 87L110 105Q139 115 148 136.50Q157 158 157 207Q157 217 152 320L60 320L60 413L145 427Q142 469 142 510Q142 608 194 662.50Q246 717 355 717Q412 717 465 708.50Q518 700 542 691L567 682L567 520L477 520L457 594Q420 600 372 600Q290 600 290 512L290 493Q290 470 292 430L436 430L436 320L300 320Q305 262 305 222Q305 150 268 117L454 117L477 220L570 220L570 0L60 0Z"  horiz-adv-x="625" vert-adv-y="1000"  />

      
      <glyph glyph-name="unia4" unicode="&#xa4;" d="M105 296Q105 354 131 400L52 480L126 560L206 480Q259 510 317 510Q373 510 421 485L498 561L572 481L498 407Q523 360 523 302Q523 241 495 191L573 114L498 35L419 113Q371 85 312 85Q246 85 201 112L126 37L51 117L127 192Q105 239 105 296M227 298Q227 189 314 189Q402 189 402 298Q402 403 314 403Q227 403 227 298Z"  horiz-adv-x="624" vert-adv-y="1000"  />

      
      <glyph glyph-name="unia5" unicode="&#xa5;" d="M84 313L84 403L178 403L76 589L10 617L10 700L292 705L292 617L241 596L342 385L448 595L392 617L392 700L662 705L662 617L592 590L489 403L584 403L584 313L84 313M182 0L182 87L257 107L257 163L84 163L84 253L584 253L584 163L412 163L412 107L487 87L487 0L182 0Z"  horiz-adv-x="672" vert-adv-y="1000"  />

      
      <glyph glyph-name="unia6" unicode="&#xa6;" d="M205 365L87 365L87 765L205 765L205 365M205-265L87-265L87 145L205 145L205-265Z"  horiz-adv-x="297" vert-adv-y="1000"  />

      
      <glyph glyph-name="unia7" unicode="&#xa7;" d="M172 52L186-36Q207-42 237-42Q273-42 293.50-24Q314-6 314 25Q314 57 288 85Q262 113 225 137Q188 161 151 188Q114 215 88 256.50Q62 298 62 349Q62 446 132 497Q102 545 102 604Q102 685 158.50 736Q215 787 303 787Q342 787 381 779.50Q420 772 439 764L458 756L454 591L375 591L358 677Q333 683 311 683Q274 683 253.50 664Q233 645 233 615Q233 582 259 553Q285 524 322 500Q359 476 395.50 448.50Q432 421 458 380Q484 339 484 288Q484 193 414 142Q444 95 444 40Q444-45 388-96.50Q332-148 243-148Q206-148 167-141Q128-134 108-126L88-119L90 52L172 52M188 366Q188 338 207.50 316Q227 294 276 261.50Q325 229 341 216Q359 238 359 272Q359 300 339.50 322Q320 344 270.50 376.50Q221 409 205 421Q188 398 188 366Z"  horiz-adv-x="534" vert-adv-y="1000"  />

      
      <glyph glyph-name="unia8" unicode="&#xa8;" d="M90 712Q90 747 111.50 768.50Q133 790 164 790Q199 790 217.50 769.50Q236 749 236 712Q236 676 214.50 655Q193 634 162 634Q90 634 90 712M308 712Q308 747 330 768.50Q352 790 382 790Q454 790 454 712Q454 676 432.50 655Q411 634 380 634Q308 634 308 712Z"  horiz-adv-x="544" vert-adv-y="1000"  />

      
      <glyph glyph-name="unia9" unicode="&#xa9;" d="M37 345Q37 506 143.50 612.50Q250 719 411 719Q573 719 679 617Q785 515 785 355Q785 195 674 88Q563-19 401-19Q240-19 138.50 82Q37 183 37 345M139 350Q139 227 212 151Q285 75 406 75Q528 75 605.50 151.50Q683 228 683 350Q683 471 605.50 548Q528 625 406 625Q285 625 212 548.50Q139 472 139 350M523 273L560 216Q483 152 408 152Q323 152 273.50 201.50Q224 251 224 342Q224 439 275.50 496Q327 553 419 553Q447 553 479 545.50Q511 538 530 530L548 523L545 411L476 411L465 466Q440 472 417 472Q334 472 334 355Q334 235 421 235Q449 235 478 247.50Q507 260 523 273Z"  horiz-adv-x="823" vert-adv-y="1000"  />

      
      <glyph glyph-name="uniaa" unicode="&#xaa;" d="M66 135L66 235L439 235L439 135L66 135M439 328L300 322L286 372Q280 366 270 356.50Q260 347 229.50 331Q199 315 169 315Q115 315 85.50 345Q56 375 56 431Q56 549 227 549L273 549L273 585Q273 607 259.50 619Q246 631 223 631Q208 631 192.50 628.50Q177 626 169 624L161 622L152 579L81 579L75 688Q170 717 238 717Q320 717 353 683.50Q386 650 386 574L386 406L439 394L439 328M164 439Q164 423 175 413Q186 403 204 403Q220 403 237 411.50Q254 420 264 428L273 437L273 484L234 484Q164 484 164 439Z"  horiz-adv-x="468" vert-adv-y="1000"  />

      
      <glyph glyph-name="uniab" unicode="&#xab;" d="M431 265L544 105L461 49L305 226L305 303L461 480L544 425L431 265M181 265L290 105L207 49L55 226L55 303L207 480L290 425L181 265Z"  horiz-adv-x="599" vert-adv-y="1000"  />

      
      <glyph glyph-name="uniac" unicode="&#xac;" d="M60 260L60 375L587 375L587 80L460 80L460 260L60 260Z"  horiz-adv-x="642" vert-adv-y="1000"  />

      
      <glyph glyph-name="uniae" unicode="&#xae;" d="M45 449Q45 586 135.50 676Q226 766 362 766Q498 766 588 680.50Q678 595 678 460Q678 324 583.50 233.50Q489 143 351 143Q216 143 130.50 228Q45 313 45 449M200.50 617Q200.50 617 171.75 586.50Q143 556 143 455Q143 354 200.50 292.50Q258 231 357 231Q457 231 519 293Q581 355 581 455Q581 555 519 616.50Q457 678 357 678Q258 678 200.50 617M366 347L366 302L222 302L222 347L256 359L256 557L222 571L222 613L365 615Q367 615 368 615Q404 615 430.50 605Q457 595 472.50 574Q488 553 488 524Q488 466 435 440Q443 435 452 418L483 359L516 347L516 302L426 302L385 393Q377 411 371 417Q365 423 356 423L333 423L333 359L366 347M333 556L333 476L359 476Q380 476 395 487Q410 498 410 516Q410 556 366 556L333 556Z"  horiz-adv-x="723" vert-adv-y="1000"  />

      
      <glyph glyph-name="uniaf" unicode="&#xaf;" d="M42 640L42 747L307 747L307 640L42 640Z"  horiz-adv-x="350" vert-adv-y="1000"  />

      
      <glyph glyph-name="unib0" unicode="&#xb0;" d="M45 580Q45 652 92 696.50Q139 741 213 741Q287 741 334 698.50Q381 656 381 585Q381 509 334 464Q287 419 213 419Q138 419 91.50 462Q45 505 45 580M145 584Q145 548 162.50 528Q180 508 213 508Q246 508 263.50 528Q281 548 281 584Q281 616 262.50 634Q244 652 213 652Q182 652 163.50 634Q145 616 145 584Z"  horiz-adv-x="426" vert-adv-y="1000"  />

      
      <glyph glyph-name="unib1" unicode="&#xb1;" d="M52 288L52 405L245 405L245 552L378 552L378 405L570 405L570 288L378 288L378 137L245 137L245 288L52 288M52-36L52 78L570 78L570-36L52-36Z"  horiz-adv-x="622" vert-adv-y="1000"  />

      
      <glyph glyph-name="unib2" unicode="&#xb2;" d="M33 380Q160 477 187 505Q225 545 225 579Q225 618 174 618Q163 618 152.50 616Q142 614 136 612L131 611L124 558L39 558L36 690Q113 715 184 715Q266 715 313.50 685.50Q361 656 361 595Q361 538 327 496Q293 454 204 385L365 385L365 280L33 280L33 380Z"  horiz-adv-x="404" vert-adv-y="1000"  />

      
      <glyph glyph-name="unib3" unicode="&#xb3;" d="M352 604Q352 565 330 539.50Q308 514 271 504Q309 497 335.50 470.50Q362 444 362 407Q362 339 308.50 305.50Q255 272 172 272Q137 272 98.50 281.50Q60 291 38 300L17 310L44 394Q106 367 163 367Q194 367 212.50 381.50Q231 396 231 414Q231 459 158 459L104 459L104 534L159 534Q227 534 227 582Q227 622 172 622L119 616L114 574L32 574L29 692Q115 715 184 715Q265 715 308.50 686.50Q352 658 352 604Z"  horiz-adv-x="395" vert-adv-y="1000"  />

      
      <glyph glyph-name="unib4" unicode="&#xb4;" d="M346 740L119 627L72 707L288 848L346 740Z"  horiz-adv-x="418" vert-adv-y="1000"  />

      
      <glyph glyph-name="unib5" unicode="&#xb5;" d="M91-235L91 432L17 452L17 532L238 540L238 191Q238 117 296 117Q325 117 354.50 130.50Q384 144 400 158L415 172L415 432L341 452L341 532L562 540L562 105L638 85L638 7L435 0L425 71Q416 62 400.50 48.50Q385 35 345 12.50Q305-10 275-10Q254-10 238-4L238-235L91-235Z"  horiz-adv-x="659" vert-adv-y="1000"  />

      
      <glyph glyph-name="uni03BC" unicode="&#x03BC;" d="M91-235L91 432L17 452L17 532L238 540L238 191Q238 117 296 117Q325 117 354.50 130.50Q384 144 400 158L415 172L415 432L341 452L341 532L562 540L562 105L638 85L638 7L435 0L425 71Q416 62 400.50 48.50Q385 35 345 12.50Q305-10 275-10Q254-10 238-4L238-235L91-235Z"  horiz-adv-x="659" vert-adv-y="1000"  />

      
      <glyph glyph-name="unib6" unicode="&#xb6;" d="M154-170L154-87L236-65L236 273Q156 281 103 342.50Q50 404 50 491Q50 584 110.50 644.50Q171 705 275 705L460 705L666 697L666 617L586 597L586-170L460-170L460 597L355 597L355-170L154-170Z"  horiz-adv-x="721" vert-adv-y="1000"  />

      
      <glyph glyph-name="unib7" unicode="&#xb7;" d="M61 306Q61 350 86 375Q111 400 151 400Q237 400 237 306Q237 262 212.50 237.50Q188 213 148 213Q61 213 61 306Z"  horiz-adv-x="299" vert-adv-y="1000"  />

      
      <glyph glyph-name="unib8" unicode="&#xb8;" d="M204-167Q227-167 240.50-156.50Q254-146 254-129Q254-86 172-86L172 0L257 0L257-43Q297-51 320-74Q343-97 343-132Q343-177 308-205Q273-233 217-233Q187-233 156.50-225Q126-217 110-209L95-201L126-146Q166-167 204-167Z"  horiz-adv-x="431" vert-adv-y="1000"  />

      
      <glyph glyph-name="unib9" unicode="&#xb9;" d="M373 369L373 280L59 280L59 369L155 369L155 578L64 523L15 606L173 705L282 705L282 369L373 369Z"  horiz-adv-x="393" vert-adv-y="1000"  />

      
      <glyph glyph-name="uniba" unicode="&#xba;" d="M254 717Q342 717 393 666.50Q444 616 444 524Q444 432 387.50 373.50Q331 315 242 315Q152 315 101 364.50Q50 414 50 510Q50 604 107.50 660.50Q165 717 254 717M249 625Q175 625 175 514Q175 407 247 407Q319 407 319 520Q319 625 249 625M58 135L58 235L436 235L436 135L58 135Z"  horiz-adv-x="494" vert-adv-y="1000"  />

      
      <glyph glyph-name="unibb" unicode="&#xbb;" d="M55 105L168 265L55 425L138 480L294 303L294 226L138 49L55 105M309 105L418 265L309 425L392 480L544 303L544 226L392 49L309 105Z"  horiz-adv-x="599" vert-adv-y="1000"  />

      
      <glyph glyph-name="unibc" unicode="&#xbc;" d="M255 0L663 705L808 705L400 0L255 0M815 430L959 413L959 170L1017 170L1017 77L959 77L959 0L832 0L832 77L632 77L618 161L815 430M392 369L392 280L89 280L89 369L185 369L185 578L94 523L45 606L203 705L312 705L312 369L392 369M832 297L737 170L832 170L832 297Z"  horiz-adv-x="1072" vert-adv-y="1000"  />

      
      <glyph glyph-name="unibd" unicode="&#xbd;" d="M256 0L664 705L809 705L401 0L256 0M683 100Q809 197 833 222Q875 264 875 300Q875 338 823 338Q812 338 801.50 336Q791 334 786 332L780 331L774 278L689 278L686 410Q762 435 833 435Q916 435 963.50 405.50Q1011 376 1011 315Q1011 258 977 216Q943 174 854 105L1015 105L1015 0L683 0L683 100M392 369L392 280L89 280L89 369L185 369L185 578L94 523L45 606L203 705L312 705L312 369L392 369Z"  horiz-adv-x="1073" vert-adv-y="1000"  />

      
      <glyph glyph-name="unibe" unicode="&#xbe;" d="M238 0L646 705L791 705L383 0L238 0M615 77L601 161L797 430L941 413L941 170L999 170L999 77L941 77L941 0L814 0L814 77L615 77M374 596Q374 517 293 495Q330 489 357.50 462Q385 435 385 398Q385 331 331.50 297.50Q278 264 195 264Q160 264 121 273Q82 282 61 292L40 301L67 385Q128 359 185 359Q211 359 232.50 371.50Q254 384 254 406Q254 451 180 451L127 451L127 525L182 525Q249 525 249 575Q249 614 195 614Q182 614 168.50 612Q155 610 148 608L141 607L136 566L55 566L51 683Q138 706 207 706Q288 706 331 677.50Q374 649 374 596M814 297L719 170L814 170L814 297Z"  horiz-adv-x="1054" vert-adv-y="1000"  />

      
      <glyph glyph-name="unibf" unicode="&#xbf;" d="M370 466Q370 425 344.50 400.50Q319 376 284 376Q243 376 221.50 399.50Q200 423 200 466Q200 508 225 532.50Q250 557 286 557Q327 557 348.50 533.50Q370 510 370 466M228 291L360 297Q369 232 369 199Q369 167 342.50 133.50Q316 100 285 76.50Q254 53 227.50 21Q201-11 201-42Q201-108 291-108Q310-108 332-105Q354-102 367-100L380-97L399-201Q315-225 250-225Q196-225 153-211.50Q110-198 80-162Q50-126 50-70Q50-27 68.50 11Q87 49 113.50 77Q140 105 166.50 130Q193 155 211.50 181.50Q230 208 230 233L228 291Z"  horiz-adv-x="461" vert-adv-y="1000"  />

      
      <glyph glyph-name="unic0" unicode="&#xc0;" d="M473 735L246 847L304 956L519 815L473 735M465 705L680 110L750 87L750 0L432 0L432 87L507 110L483 185L261 185L236 111L314 87L314 0L12 0L12 87L85 110L305 702L465 705M375 529L296 292L450 292L375 529Z"  horiz-adv-x="762" vert-adv-y="1000"  />

      
      <glyph glyph-name="unic1" unicode="&#xc1;" d="M579 847L352 735L306 815L521 956L579 847M465 705L680 110L750 87L750 0L432 0L432 87L507 110L483 185L261 185L236 111L314 87L314 0L12 0L12 87L85 110L305 702L465 705M375 529L296 292L450 292L375 529Z"  horiz-adv-x="762" vert-adv-y="1000"  />

      
      <glyph glyph-name="unic2" unicode="&#xc2;" d="M385 840L228 742L180 808L333 939L422 947L584 808L536 742L385 840M465 705L680 110L750 87L750 0L432 0L432 87L507 110L483 185L261 185L236 111L314 87L314 0L12 0L12 87L85 110L305 702L465 705M375 529L296 292L450 292L375 529Z"  horiz-adv-x="762" vert-adv-y="1000"  />

      
      <glyph glyph-name="unic3" unicode="&#xc3;" d="M465 705L680 110L750 87L750 0L432 0L432 87L507 110L483 185L261 185L236 111L314 87L314 0L12 0L12 87L85 110L305 702L465 705M375 529L296 292L450 292L375 529M252 795L205 841Q207 845 210 852.50Q213 860 225 879Q237 898 250 912.50Q263 927 285 939Q307 951 330 951Q366 951 416.50 928Q467 905 496 905Q513 905 530.50 915.50Q548 926 557 937L565 947L618 901Q616 897 612.50 889.50Q609 882 597.50 863Q586 844 572.50 830Q559 816 537.50 804Q516 792 493 792Q457 792 405.50 814Q354 836 325 836Q306 836 288 825.50Q270 815 261 805L252 795Z"  horiz-adv-x="762" vert-adv-y="1000"  />

      
      <glyph glyph-name="unic4" unicode="&#xc4;" d="M465 705L680 110L750 87L750 0L432 0L432 87L507 110L483 185L261 185L236 111L314 87L314 0L12 0L12 87L85 110L305 702L465 705M375 529L296 292L450 292L375 529M226 847Q226 882 247.50 903.50Q269 925 300 925Q335 925 353.50 904.50Q372 884 372 847Q372 811 350.50 790Q329 769 298 769Q226 769 226 847M444 847Q444 882 466 903.50Q488 925 518 925Q590 925 590 847Q590 811 568.50 790Q547 769 516 769Q444 769 444 847Z"  horiz-adv-x="762" vert-adv-y="1000"  />

      
      <glyph glyph-name="unic5" unicode="&#xc5;" d="M465 705L680 110L750 87L750 0L432 0L432 87L507 110L483 185L261 185L236 111L314 87L314 0L12 0L12 87L85 110L305 702L465 705M375 529L296 292L450 292L375 529M249 804Q249 864 289.50 900.50Q330 937 383 937Q436 937 476 903Q516 869 516 810Q516 751 475.50 714Q435 677 383 677Q329 677 289 711Q249 745 249 804M334 807Q334 750 383 750Q404 750 417.50 765Q431 780 431 808Q431 865 383 865Q361 865 347.50 850Q334 835 334 807Z"  horiz-adv-x="762" vert-adv-y="1000"  />

      
      <glyph glyph-name="unic6" unicode="&#xc6;" d="M644 587L644 420L846 420L846 310L644 310L644 117L821 117L844 202L936 202L936 0L415 0L415 87L489 112L489 192L296 192L256 108L318 87L318 0L20 0L20 87L102 112L333 589L248 617L248 700L439 705L924 705L924 510L831 510L806 587L644 587M489 300L489 587L475 587L343 300L489 300Z"  horiz-adv-x="984" vert-adv-y="1000"  />

      
      <glyph glyph-name="unic7" unicode="&#xc7;" d="M567 187L622 97Q619 94 612.50 88Q606 82 585 66Q564 50 541.50 37Q519 24 484 11Q449-2 413-8L413-44Q498-61 498-134Q498-178 462-206Q426-234 372-234Q342-234 310.50-225.50Q279-217 263-208L247-200L279-144Q321-167 361-167Q382-167 394.50-157Q407-147 407-130Q407-87 325-87L325-10Q188-1 114 89Q40 179 40 342Q40 517 131 617Q222 717 377 717Q431 717 489 705.50Q547 694 578 682L610 670L605 480L507 480L484 576Q437 592 372 592Q207 592 207 347Q207 117 377 117Q421 117 468.50 134.50Q516 152 542 170L567 187Z"  horiz-adv-x="652" vert-adv-y="1000"  />

      
      <glyph glyph-name="unic8" unicode="&#xc8;" d="M285 587L285 420L487 420L487 310L285 310L285 117L462 117L485 200L577 200L577 0L55 0L55 87L130 112L130 587L55 617L55 700L285 705L565 705L565 512L472 512L447 587L285 587M386 735L159 847L217 956L433 815L386 735Z"  horiz-adv-x="625" vert-adv-y="1000"  />

      
      <glyph glyph-name="unic9" unicode="&#xc9;" d="M285 587L285 420L487 420L487 310L285 310L285 117L462 117L485 200L577 200L577 0L55 0L55 87L130 112L130 587L55 617L55 700L285 705L565 705L565 512L472 512L447 587L285 587M490 848L263 735L216 815L432 956L490 848Z"  horiz-adv-x="627" vert-adv-y="1000"  />

      
      <glyph glyph-name="unica" unicode="&#xca;" d="M285 587L285 420L487 420L487 310L285 310L285 117L462 117L485 200L577 200L577 0L55 0L55 87L130 112L130 587L55 617L55 700L285 705L565 705L565 512L472 512L447 587L285 587M342 840L185 742L137 808L290 939L379 947L541 808L493 742L342 840Z"  horiz-adv-x="627" vert-adv-y="1000"  />

      
      <glyph glyph-name="unicb" unicode="&#xcb;" d="M285 587L285 420L487 420L487 310L285 310L285 117L462 117L485 200L577 200L577 0L55 0L55 87L130 112L130 587L55 617L55 700L285 705L565 705L565 512L472 512L447 587L285 587M145 848Q145 883 166.50 904.50Q188 926 219 926Q254 926 272.50 905.50Q291 885 291 848Q291 812 269.50 791Q248 770 217 770Q145 770 145 848M363 848Q363 883 385 904.50Q407 926 437 926Q509 926 509 848Q509 812 487.50 791Q466 770 435 770Q363 770 363 848Z"  horiz-adv-x="627" vert-adv-y="1000"  />

      
      <glyph glyph-name="unicc" unicode="&#xcc;" d="M330 87L330 0L25 0L25 87L100 112L100 587L25 617L25 700L330 705L330 617L255 587L255 112L330 87M236 735L9 847L67 956L283 815L236 735Z"  horiz-adv-x="370" vert-adv-y="1000"  />

      
      <glyph glyph-name="unicd" unicode="&#xcd;" d="M345 87L345 0L40 0L40 87L115 112L115 587L40 617L40 700L345 705L345 617L270 587L270 112L345 87M365 848L138 735L91 815L307 956L365 848Z"  horiz-adv-x="400" vert-adv-y="1000"  />

      
      <glyph glyph-name="unice" unicode="&#xce;" d="M378 87L378 0L73 0L73 87L148 112L148 587L73 617L73 700L378 705L378 617L303 587L303 112L378 87M225 840L68 742L20 808L173 939L262 947L424 808L376 742L225 840Z"  horiz-adv-x="449" vert-adv-y="1000"  />

      
      <glyph glyph-name="unicf" unicode="&#xcf;" d="M26 847Q26 882 47.50 903.50Q69 925 100 925Q135 925 153.50 904.50Q172 884 172 847Q172 811 150.50 790Q129 769 98 769Q26 769 26 847M234 847Q234 882 256 903.50Q278 925 308 925Q380 925 380 847Q380 811 358.50 790Q337 769 306 769Q234 769 234 847M354 87L354 0L49 0L49 87L124 112L124 587L49 617L49 700L354 705L354 617L279 587L279 112L354 87Z"  horiz-adv-x="404" vert-adv-y="1000"  />

      
      <glyph glyph-name="unid0" unicode="&#xd0;" d="M57 312L57 422L140 422L140 587L50 617L50 700L295 705L394 705Q545 705 628 617Q711 529 711 362Q711 194 621 97Q531 0 379 0L50 0L50 87L140 112L140 312L57 312M294 587L294 422L415 422L415 312L294 312L294 117L381 117Q459 117 501.50 172.50Q544 228 544 357Q544 479 504.50 533Q465 587 389 587L294 587Z"  horiz-adv-x="761" vert-adv-y="1000"  />

      
      <glyph glyph-name="unid1" unicode="&#xd1;" d="M235 772L187 811Q189 815 192 822.50Q195 830 207 849Q219 868 232 882.50Q245 897 267 909Q289 921 312 921Q348 921 402.50 898Q457 875 486 875Q503 875 520.50 885.50Q538 896 546 906L555 917L610 875Q608 871 604 864Q600 857 586.50 839Q573 821 558.50 807Q544 793 521 782Q498 771 475 771Q439 771 387.50 790.50Q336 810 307 810Q288 810 270 800.50Q252 791 244 782L235 772M325 87L325 0L35 0L35 87L110 112L110 587L35 617L35 700L275 705L545 243L545 587L472 617L472 700L757 705L757 617L682 587L682 0L515 0L247 453L247 112L325 87Z"  horiz-adv-x="785" vert-adv-y="1000"  />

      
      <glyph glyph-name="unid2" unicode="&#xd2;" d="M385 717Q535 717 617.50 623.50Q700 530 700 362Q700 193 607.50 90Q515-13 365-13Q215-13 135 79Q55 171 55 347Q55 519 143.50 618Q232 717 385 717M380 592Q302 592 262 536.50Q222 481 222 352Q222 229 258.50 170.50Q295 112 370 112Q449 112 490.50 169.50Q532 227 532 357Q532 479 494 535.50Q456 592 380 592M436 735L209 847L267 956L483 815L436 735Z"  horiz-adv-x="755" vert-adv-y="1000"  />

      
      <glyph glyph-name="unid3" unicode="&#xd3;" d="M385 717Q535 717 617.50 623.50Q700 530 700 362Q700 193 607.50 90Q515-13 365-13Q215-13 135 79Q55 171 55 347Q55 519 143.50 618Q232 717 385 717M380 592Q302 592 262 536.50Q222 481 222 352Q222 229 258.50 170.50Q295 112 370 112Q449 112 490.50 169.50Q532 227 532 357Q532 479 494 535.50Q456 592 380 592M531 848L304 735L257 815L473 956L531 848Z"  horiz-adv-x="755" vert-adv-y="1000"  />

      
      <glyph glyph-name="unid4" unicode="&#xd4;" d="M385 717Q535 717 617.50 623.50Q700 530 700 362Q700 193 607.50 90Q515-13 365-13Q215-13 135 79Q55 171 55 347Q55 519 143.50 618Q232 717 385 717M380 592Q302 592 262 536.50Q222 481 222 352Q222 229 258.50 170.50Q295 112 370 112Q449 112 490.50 169.50Q532 227 532 357Q532 479 494 535.50Q456 592 380 592M385 840L228 742L180 808L333 939L422 947L584 808L536 742L385 840Z"  horiz-adv-x="755" vert-adv-y="1000"  />

      
      <glyph glyph-name="unid5" unicode="&#xd5;" d="M215 777L167 816Q169 820 172 827.50Q175 835 187 854Q199 873 212 887.50Q225 902 247 914Q269 926 292 926Q328 926 382.50 903Q437 880 466 880Q483 880 500.50 890.50Q518 901 526 912L535 922L590 880Q588 876 584 869Q580 862 566.50 844Q553 826 538.50 812Q524 798 501 787Q478 776 455 776Q419 776 367.50 795.50Q316 815 287 815Q268 815 250 805.50Q232 796 224 786L215 777M385 717Q535 717 617.50 623.50Q700 530 700 362Q700 193 607.50 90Q515-13 365-13Q215-13 135 79Q55 171 55 347Q55 519 143.50 618Q232 717 385 717M380 592Q302 592 262 536.50Q222 481 222 352Q222 229 258.50 170.50Q295 112 370 112Q449 112 490.50 169.50Q532 227 532 357Q532 479 494 535.50Q456 592 380 592Z"  horiz-adv-x="755" vert-adv-y="1000"  />

      
      <glyph glyph-name="unid6" unicode="&#xd6;" d="M385 717Q535 717 617.50 623.50Q700 530 700 362Q700 193 607.50 90Q515-13 365-13Q215-13 135 79Q55 171 55 347Q55 519 143.50 618Q232 717 385 717M380 592Q302 592 262 536.50Q222 481 222 352Q222 229 258.50 170.50Q295 112 370 112Q449 112 490.50 169.50Q532 227 532 357Q532 479 494 535.50Q456 592 380 592M194 847Q194 882 215.50 903.50Q237 925 268 925Q303 925 321.50 904.50Q340 884 340 847Q340 811 318.50 790Q297 769 266 769Q194 769 194 847M412 847Q412 882 434 903.50Q456 925 486 925Q558 925 558 847Q558 811 536.50 790Q515 769 484 769Q412 769 412 847Z"  horiz-adv-x="755" vert-adv-y="1000"  />

      
      <glyph glyph-name="unid7" unicode="&#xd7;" d="M53 439L137 524L306 354L476 524L560 439L391 270L560 101L476 16L306 186L137 16L53 101L222 270L53 439Z"  horiz-adv-x="613" vert-adv-y="1000"  />

      
      <glyph glyph-name="unid8" unicode="&#xd8;" d="M163-110L74-59L152 69Q62 161 62 347Q62 519 151 618Q240 717 392 717Q470 717 531 690L593 793L682 742L615 633Q707 539 707 362Q707 194 614.50 91Q522-12 372-12Q296-12 237 12L163-110M387 592Q310 592 270 538Q230 484 230 363Q230 277 251 231Q278 276 460 575Q428 592 387 592M540 357Q540 427 518 473L308 129Q337 112 377 112Q540 112 540 357Z"  horiz-adv-x="770" vert-adv-y="1000"  />

      
      <glyph glyph-name="unid9" unicode="&#xd9;" d="M262 587L262 270Q262 183 291 146.50Q320 110 392 110Q468 110 494 150.50Q520 191 520 285L520 587L442 617L442 700L750 705L750 617L675 587L675 285Q675 135 609 61.50Q543-12 387-12Q239-12 173 56Q107 124 107 270L107 587L32 617L32 700L340 705L340 617L262 587M446 735L219 847L277 956L493 815L446 735Z"  horiz-adv-x="782" vert-adv-y="1000"  />

      
      <glyph glyph-name="unida" unicode="&#xda;" d="M262 587L262 270Q262 183 291 146.50Q320 110 392 110Q468 110 494 150.50Q520 191 520 285L520 587L442 617L442 700L750 705L750 617L675 587L675 285Q675 135 609 61.50Q543-12 387-12Q239-12 173 56Q107 124 107 270L107 587L32 617L32 700L340 705L340 617L262 587M586 848L359 735L312 815L528 956L586 848Z"  horiz-adv-x="782" vert-adv-y="1000"  />

      
      <glyph glyph-name="unidb" unicode="&#xdb;" d="M262 587L262 270Q262 183 291 146.50Q320 110 392 110Q468 110 494 150.50Q520 191 520 285L520 587L442 617L442 700L750 705L750 617L675 587L675 285Q675 135 609 61.50Q543-12 387-12Q239-12 173 56Q107 124 107 270L107 587L32 617L32 700L340 705L340 617L262 587M391 840L234 742L186 808L339 939L428 947L590 808L542 742L391 840Z"  horiz-adv-x="782" vert-adv-y="1000"  />

      
      <glyph glyph-name="unidc" unicode="&#xdc;" d="M262 587L262 270Q262 183 291 146.50Q320 110 392 110Q468 110 494 150.50Q520 191 520 285L520 587L442 617L442 700L750 705L750 617L675 587L675 285Q675 135 609 61.50Q543-12 387-12Q239-12 173 56Q107 124 107 270L107 587L32 617L32 700L340 705L340 617L262 587M209 847Q209 882 230.50 903.50Q252 925 283 925Q318 925 336.50 904.50Q355 884 355 847Q355 811 333.50 790Q312 769 281 769Q209 769 209 847M427 847Q427 882 449 903.50Q471 925 501 925Q573 925 573 847Q573 811 551.50 790Q530 769 499 769Q427 769 427 847Z"  horiz-adv-x="782" vert-adv-y="1000"  />

      
      <glyph glyph-name="unidd" unicode="&#xdd;" d="M485 87L485 0L180 0L180 87L255 112L255 244L72 590L7 617L7 700L290 705L290 617L239 596L339 379L445 595L390 617L390 700L660 705L660 617L591 590L410 245L410 112L485 87M526 848L299 735L252 815L468 956L526 848Z"  horiz-adv-x="667" vert-adv-y="1000"  />

      
      <glyph glyph-name="unide" unicode="&#xde;" d="M365 87L365 0L30 0L30 87L120 112L120 587L30 617L30 700L365 705L365 617L275 587L275 555L374 555Q488 555 551 507Q614 459 614 370Q614 262 538.50 211Q463 160 329 160L275 160L275 112L365 87M356 445L275 445L275 267L339 267Q397 267 429 290.50Q461 314 461 360Q461 401 432.50 423Q404 445 356 445Z"  horiz-adv-x="644" vert-adv-y="1000"  />

      
      <glyph glyph-name="unidf" unicode="&#xdf;" d="M152 522L152 570Q152 668 218.50 727.50Q285 787 395 787Q515 787 581 741.50Q647 696 647 618Q647 578 629.50 545.50Q612 513 590.50 495.50Q569 478 551.50 455Q534 432 534 410Q534 385 558 366.50Q582 348 616 334Q650 320 683.50 303Q717 286 741 252.50Q765 219 765 172Q765 90 704 40Q643-10 546-10Q510-10 467.50-4.50Q425 1 400 6L375 12L375 173L465 173L475 106Q502 95 541 95Q613 95 613 149Q613 173 589 190.50Q565 208 531.50 222Q498 236 464 254Q430 272 406 307Q382 342 382 391Q382 430 400.50 460.50Q419 491 441 507Q463 523 481.50 546.50Q500 570 500 597Q500 635 469 656Q438 677 397 677Q351 677 325.50 650.50Q300 624 300 577L300 0L72 0L72 80L152 105L152 420L52 420L52 507L152 522Z"  horiz-adv-x="787" vert-adv-y="1000"  />

      
      <glyph glyph-name="unie0" unicode="&#xe0;" d="M570 7L372 0L354 65Q345 57 330 44.50Q315 32 272.50 11Q230-10 192-10Q119-10 78 31Q37 72 37 147Q37 312 277 312L347 312L347 367Q347 442 270 442Q247 442 225 438Q203 434 192 430L182 427L167 362L77 362L70 510Q191 550 287 550Q401 550 448 505.50Q495 461 495 352L495 105L570 87L570 7M181 162Q181 102 240 102Q264 102 290.50 116.50Q317 131 332 146L347 160L347 227L290 227Q232 227 206.50 211.50Q181 196 181 162M353 598L111 745L179 849L402 671L353 598Z"  horiz-adv-x="592" vert-adv-y="1000"  />

      
      <glyph glyph-name="unie1" unicode="&#xe1;" d="M570 7L372 0L354 65Q345 57 330 44.50Q315 32 272.50 11Q230-10 192-10Q119-10 78 31Q37 72 37 147Q37 312 277 312L347 312L347 367Q347 442 270 442Q247 442 225 438Q203 434 192 430L182 427L167 362L77 362L70 510Q191 550 287 550Q401 550 448 505.50Q495 461 495 352L495 105L570 87L570 7M181 162Q181 102 240 102Q264 102 290.50 116.50Q317 131 332 146L347 160L347 227L290 227Q232 227 206.50 211.50Q181 196 181 162M437 745L195 598L146 671L369 849L437 745Z"  horiz-adv-x="592" vert-adv-y="1000"  />

      
      <glyph glyph-name="unie2" unicode="&#xe2;" d="M570 7L372 0L354 65Q345 57 330 44.50Q315 32 272.50 11Q230-10 192-10Q119-10 78 31Q37 72 37 147Q37 312 277 312L347 312L347 367Q347 442 270 442Q247 442 225 438Q203 434 192 430L182 427L167 362L77 362L70 510Q191 550 287 550Q401 550 448 505.50Q495 461 495 352L495 105L570 87L570 7M181 162Q181 102 240 102Q264 102 290.50 116.50Q317 131 332 146L347 160L347 227L290 227Q232 227 206.50 211.50Q181 196 181 162M287 724L119 604L71 670L235 823L324 831L499 670L451 604L287 724Z"  horiz-adv-x="592" vert-adv-y="1000"  />

      
      <glyph glyph-name="unie3" unicode="&#xe3;" d="M570 7L372 0L354 65Q345 57 330 44.50Q315 32 272.50 11Q230-10 192-10Q119-10 78 31Q37 72 37 147Q37 312 277 312L347 312L347 367Q347 442 270 442Q247 442 225 438Q203 434 192 430L182 427L167 362L77 362L70 510Q191 550 287 550Q401 550 448 505.50Q495 461 495 352L495 105L570 87L570 7M181 162Q181 102 240 102Q264 102 290.50 116.50Q317 131 332 146L347 160L347 227L290 227Q232 227 206.50 211.50Q181 196 181 162M116 630L69 676Q71 680 74 687.50Q77 695 89 714Q101 733 114 747.50Q127 762 149 774Q171 786 194 786Q230 786 280.50 763Q331 740 360 740Q377 740 394.50 750.50Q412 761 420 772L429 782L482 736Q480 732 476.50 724.50Q473 717 461.50 698Q450 679 436.50 665Q423 651 401.50 639Q380 627 357 627Q321 627 269.50 649Q218 671 189 671Q170 671 152 660.50Q134 650 125 640L116 630Z"  horiz-adv-x="592" vert-adv-y="1000"  />

      
      <glyph glyph-name="unie4" unicode="&#xe4;" d="M570 7L372 0L354 65Q345 57 330 44.50Q315 32 272.50 11Q230-10 192-10Q119-10 78 31Q37 72 37 147Q37 312 277 312L347 312L347 367Q347 442 270 442Q247 442 225 438Q203 434 192 430L182 427L167 362L77 362L70 510Q191 550 287 550Q401 550 448 505.50Q495 461 495 352L495 105L570 87L570 7M181 162Q181 102 240 102Q264 102 290.50 116.50Q317 131 332 146L347 160L347 227L290 227Q232 227 206.50 211.50Q181 196 181 162M104 698Q104 733 125.50 754.50Q147 776 178 776Q213 776 231.50 755.50Q250 735 250 698Q250 662 228.50 641Q207 620 176 620Q104 620 104 698M322 698Q322 733 344 754.50Q366 776 396 776Q468 776 468 698Q468 662 446.50 641Q425 620 394 620Q322 620 322 698Z"  horiz-adv-x="592" vert-adv-y="1000"  />

      
      <glyph glyph-name="unie5" unicode="&#xe5;" d="M570 7L372 0L354 65Q345 57 330 44.50Q315 32 272.50 11Q230-10 192-10Q119-10 78 31Q37 72 37 147Q37 312 277 312L347 312L347 367Q347 442 270 442Q247 442 225 438Q203 434 192 430L182 427L167 362L77 362L70 510Q191 550 287 550Q401 550 448 505.50Q495 461 495 352L495 105L570 87L570 7M181 162Q181 102 240 102Q264 102 290.50 116.50Q317 131 332 146L347 160L347 227L290 227Q232 227 206.50 211.50Q181 196 181 162M162 704Q162 764 202.50 800.50Q243 837 296 837Q349 837 389 803Q429 769 429 710Q429 651 388.50 614Q348 577 296 577Q242 577 202 611Q162 645 162 704M247 707Q247 650 296 650Q317 650 330.50 665Q344 680 344 708Q344 765 296 765Q274 765 260.50 750Q247 735 247 707Z"  horiz-adv-x="592" vert-adv-y="1000"  />

      
      <glyph glyph-name="unie6" unicode="&#xe6;" d="M827 238L496 235Q500 174 532.50 140.50Q565 107 617 107Q654 107 695.50 118.50Q737 130 760 142L783 154L827 74Q815 65 794 51Q773 37 712.50 13.50Q652-10 597-10Q451-10 389 90Q304-10 192-10Q121-10 79 32Q37 74 37 147Q37 312 277 312L347 312L347 367Q347 442 270 442Q248 442 226 438Q204 434 193 430L182 427L167 362L77 362L70 510Q70 512 103 521Q136 530 189.50 539.50Q243 549 285 549Q397 549 441 491Q508 550 607 550Q715 550 774 488Q833 426 833 316L827 238M180 162Q180 134 196 118Q212 102 240 102Q263 102 290 117Q317 132 332 147L347 162L347 227L290 227Q232 227 206 211.50Q180 196 180 162M597 433Q555 433 528.50 404.50Q502 376 496 325L679 325Q679 433 597 433Z"  horiz-adv-x="863" vert-adv-y="1000"  />

      
      <glyph glyph-name="unie7" unicode="&#xe7;" d="M455 160L505 75Q426 7 334-6L334-40Q373-48 396.50-71.50Q420-95 420-130Q420-173 384-201Q348-229 295-229Q265-229 234-221Q203-213 187-205L171-197L202-142Q244-163 284-163Q306-163 318.50-153Q331-143 331-126Q331-105 308.50-93.50Q286-82 248-82L248-7Q144 4 87 74.50Q30 145 30 262Q30 396 102.50 473Q175 550 305 550Q343 550 387 541.50Q431 533 456 524L480 515L475 352L385 352L371 424Q342 432 302 432Q246 432 215.50 394.50Q185 357 185 282Q185 197 216.50 152Q248 107 310 107Q330 107 348 110.50Q366 114 383 121Q400 128 409.50 133Q419 138 435.50 148Q452 158 455 160Z"  horiz-adv-x="515" vert-adv-y="1000"  />

      
      <glyph glyph-name="unie8" unicode="&#xe8;" d="M524 240L192 237Q196 175 228.50 141Q261 107 312 107Q349 107 391 118.50Q433 130 456 142L480 154L523 74Q512 65 492 51Q472 37 412 13.50Q352-10 295-10Q168-10 101.50 60.50Q35 131 35 260Q35 393 106 471.50Q177 550 302 550Q412 550 471 487Q530 424 530 315L524 240M292 433Q251 433 225.50 405Q200 377 194 330L374 330Q374 433 292 433M368 598L126 745L194 849L417 671L368 598Z"  horiz-adv-x="557" vert-adv-y="1000"  />

      
      <glyph glyph-name="unie9" unicode="&#xe9;" d="M524 240L192 237Q196 175 228.50 141Q261 107 312 107Q349 107 391 118.50Q433 130 456 142L480 154L523 74Q512 65 492 51Q472 37 412 13.50Q352-10 295-10Q168-10 101.50 60.50Q35 131 35 260Q35 393 106 471.50Q177 550 302 550Q412 550 471 487Q530 424 530 315L524 240M292 433Q251 433 225.50 405Q200 377 194 330L374 330Q374 433 292 433M459 745L217 598L168 671L391 849L459 745Z"  horiz-adv-x="557" vert-adv-y="1000"  />

      
      <glyph glyph-name="uniea" unicode="&#xea;" d="M524 240L192 237Q196 175 228.50 141Q261 107 312 107Q349 107 391 118.50Q433 130 456 142L480 154L523 74Q512 65 492 51Q472 37 412 13.50Q352-10 295-10Q168-10 101.50 60.50Q35 131 35 260Q35 393 106 471.50Q177 550 302 550Q412 550 471 487Q530 424 530 315L524 240M292 433Q251 433 225.50 405Q200 377 194 330L374 330Q374 433 292 433M290 724L122 604L74 670L238 823L327 831L502 670L454 604L290 724Z"  horiz-adv-x="557" vert-adv-y="1000"  />

      
      <glyph glyph-name="unieb" unicode="&#xeb;" d="M524 240L192 237Q196 175 228.50 141Q261 107 312 107Q349 107 391 118.50Q433 130 456 142L480 154L523 74Q512 65 492 51Q472 37 412 13.50Q352-10 295-10Q168-10 101.50 60.50Q35 131 35 260Q35 393 106 471.50Q177 550 302 550Q412 550 471 487Q530 424 530 315L524 240M292 433Q251 433 225.50 405Q200 377 194 330L374 330Q374 433 292 433M104 698Q104 733 125.50 754.50Q147 776 178 776Q213 776 231.50 755.50Q250 735 250 698Q250 662 228.50 641Q207 620 176 620Q104 620 104 698M322 698Q322 733 344 754.50Q366 776 396 776Q468 776 468 698Q468 662 446.50 641Q425 620 394 620Q322 620 322 698Z"  horiz-adv-x="557" vert-adv-y="1000"  />

      
      <glyph glyph-name="uniec" unicode="&#xec;" d="M46 532L273 540L273 105L343 80L343 0L46 0L46 80L126 105L126 432L46 452L46 532M267 598L25 745L93 849L316 671L267 598Z"  horiz-adv-x="369" vert-adv-y="1000"  />

      
      <glyph glyph-name="unied" unicode="&#xed;" d="M35 532L262 540L262 105L332 80L332 0L35 0L35 80L115 105L115 432L35 452L35 532M345 745L103 598L54 671L277 849L345 745Z"  horiz-adv-x="358" vert-adv-y="1000"  />

      
      <glyph glyph-name="uniee" unicode="&#xee;" d="M180 724L21 604L-28 670L128 823L217 831L383 670L334 604L180 724M35 532L262 540L262 105L332 80L332 0L35 0L35 80L115 105L115 432L35 452L35 532Z"  horiz-adv-x="358" vert-adv-y="1000"  />

      
      <glyph glyph-name="unief" unicode="&#xef;" d="M-1 698Q-1 733 20.50 754.50Q42 776 73 776Q108 776 126.50 755.50Q145 735 145 698Q145 662 123.50 641Q102 620 71 620Q-1 620-1 698M207 698Q207 733 229 754.50Q251 776 281 776Q353 776 353 698Q353 662 331.50 641Q310 620 279 620Q207 620 207 698M35 532L262 540L262 105L332 80L332 0L35 0L35 80L115 105L115 432L35 452L35 532Z"  horiz-adv-x="358" vert-adv-y="1000"  />

      
      <glyph glyph-name="unif0" unicode="&#xf0;" d="M115 702L161 789Q239 770 308 728L413 789L471 710L390 664Q535 521 535 272Q535 143 465 65.50Q395-12 277-12Q162-12 97 52Q32 116 32 240Q32 363 102.50 434Q173 505 287 505Q326 505 365 483Q338 555 287 603L170 536L112 615L200 665Q159 687 115 702M287 390Q187 390 187 245Q187 102 282 102Q335 102 357.50 139.50Q380 177 380 250Q380 320 359.50 355Q339 390 287 390Z"  horiz-adv-x="595" vert-adv-y="1000"  />

      
      <glyph glyph-name="unif1" unicode="&#xf1;" d="M30 532L245 540L251 471Q279 497 328.50 522.50Q378 548 435 548Q507 548 546 500.50Q585 453 585 370L585 107L657 80L657 0L385 0L385 80L437 107L437 347Q437 383 419.50 405Q402 427 370 427Q342 427 315 412.50Q288 398 275 384L262 370L262 107L315 80L315 0L30 0L30 80L115 107L115 432L30 452L30 532M180 631L133 677Q135 681 138 688.50Q141 696 152.50 715Q164 734 177.50 748Q191 762 212.50 774Q234 786 258 786Q294 786 343.50 763.50Q393 741 422 741Q439 741 456.50 751.50Q474 762 484 772L493 783L546 737Q544 733 540.50 725.50Q537 718 525.50 699Q514 680 500.50 665.50Q487 651 465 639Q443 627 420 627Q384 627 333 649.50Q282 672 253 672Q234 672 215.50 662Q197 652 188 642L180 631Z"  horiz-adv-x="677" vert-adv-y="1000"  />

      
      <glyph glyph-name="unif2" unicode="&#xf2;" d="M305 550Q426 550 491.50 479.50Q557 409 557 280Q557 146 484.50 68Q412-10 290-10Q35-10 35 265Q35 399 108 474.50Q181 550 305 550M300 435Q243 435 216.50 398Q190 361 190 270Q190 184 215 144.50Q240 105 295 105Q350 105 376 144Q402 183 402 275Q402 356 377.50 395.50Q353 435 300 435M383 598L141 745L209 849L432 671L383 598Z"  horiz-adv-x="592" vert-adv-y="1000"  />

      
      <glyph glyph-name="unif3" unicode="&#xf3;" d="M305 550Q426 550 491.50 479.50Q557 409 557 280Q557 146 484.50 68Q412-10 290-10Q35-10 35 265Q35 399 108 474.50Q181 550 305 550M300 435Q243 435 216.50 398Q190 361 190 270Q190 184 215 144.50Q240 105 295 105Q350 105 376 144Q402 183 402 275Q402 356 377.50 395.50Q353 435 300 435M454 745L212 598L163 671L386 849L454 745Z"  horiz-adv-x="592" vert-adv-y="1000"  />

      
      <glyph glyph-name="unif4" unicode="&#xf4;" d="M305 550Q426 550 491.50 479.50Q557 409 557 280Q557 146 484.50 68Q412-10 290-10Q35-10 35 265Q35 399 108 474.50Q181 550 305 550M300 435Q243 435 216.50 398Q190 361 190 270Q190 184 215 144.50Q240 105 295 105Q350 105 376 144Q402 183 402 275Q402 356 377.50 395.50Q353 435 300 435M301 724L133 604L85 670L249 823L338 831L513 670L465 604L301 724Z"  horiz-adv-x="592" vert-adv-y="1000"  />

      
      <glyph glyph-name="unif5" unicode="&#xf5;" d="M305 550Q426 550 491.50 479.50Q557 409 557 280Q557 146 484.50 68Q412-10 290-10Q35-10 35 265Q35 399 108 474.50Q181 550 305 550M300 435Q243 435 216.50 398Q190 361 190 270Q190 184 215 144.50Q240 105 295 105Q350 105 376 144Q402 183 402 275Q402 356 377.50 395.50Q353 435 300 435M136 630L89 676Q91 680 94 687.50Q97 695 109 714Q121 733 134 747.50Q147 762 169 774Q191 786 214 786Q250 786 300.50 763Q351 740 380 740Q397 740 414.50 750.50Q432 761 441 772L449 782L502 736Q500 732 496.50 724.50Q493 717 481.50 698Q470 679 456.50 665Q443 651 421.50 639Q400 627 377 627Q341 627 289.50 649Q238 671 209 671Q190 671 172 660.50Q154 650 145 640L136 630Z"  horiz-adv-x="592" vert-adv-y="1000"  />

      
      <glyph glyph-name="unif6" unicode="&#xf6;" d="M305 550Q426 550 491.50 479.50Q557 409 557 280Q557 146 484.50 68Q412-10 290-10Q35-10 35 265Q35 399 108 474.50Q181 550 305 550M300 435Q243 435 216.50 398Q190 361 190 270Q190 184 215 144.50Q240 105 295 105Q350 105 376 144Q402 183 402 275Q402 356 377.50 395.50Q353 435 300 435M114 698Q114 733 135.50 754.50Q157 776 188 776Q223 776 241.50 755.50Q260 735 260 698Q260 662 238.50 641Q217 620 186 620Q114 620 114 698M332 698Q332 733 354 754.50Q376 776 406 776Q478 776 478 698Q478 662 456.50 641Q435 620 404 620Q332 620 332 698Z"  horiz-adv-x="592" vert-adv-y="1000"  />

      
      <glyph glyph-name="unif7" unicode="&#xf7;" d="M228 51Q228 95 253 119Q278 143 317 143Q402 143 402 51Q402 7 377.50-17.50Q353-42 314-42Q228-42 228 51M228 481Q228 525 253 549Q278 573 317 573Q402 573 402 481Q402 437 377.50 412.50Q353 388 314 388Q228 388 228 481M52 208L52 323L577 323L577 208L52 208Z"  horiz-adv-x="630" vert-adv-y="1000"  />

      
      <glyph glyph-name="unif8" unicode="&#xf8;" d="M119-117L44-75L116 46Q40 113 40 265Q40 399 113 474.50Q186 550 310 550Q361 550 409 534L474 643L549 601L484 492Q562 422 562 280Q562 146 489.50 68Q417-10 295-10Q244-10 192 4L119-117M407 275Q407 319 396 345L257 113Q273 105 300 105Q356 105 381.50 145Q407 185 407 275M305 435Q247 435 221 397Q195 359 195 269Q195 227 206 196L344 427Q326 435 305 435Z"  horiz-adv-x="602" vert-adv-y="1000"  />

      
      <glyph glyph-name="unif9" unicode="&#xf9;" d="M89 169L89 434L16 452L16 532L237 540L237 197Q237 156 250 136.50Q263 117 293 117Q321 117 350.50 130.50Q380 144 396 158L411 172L411 434L337 452L337 532L558 540L558 105L634 85L634 7L430 0L420 70Q417 67 410.50 61.50Q404 56 385 42Q366 28 346 17.50Q326 7 297.50-1.50Q269-10 243-10Q168-10 128.50 37Q89 84 89 169M394 598L152 745L220 849L443 671L394 598Z"  horiz-adv-x="655" vert-adv-y="1000"  />

      
      <glyph glyph-name="unifa" unicode="&#xfa;" d="M89 169L89 434L16 452L16 532L237 540L237 197Q237 156 250 136.50Q263 117 293 117Q321 117 350.50 130.50Q380 144 396 158L411 172L411 434L337 452L337 532L558 540L558 105L634 85L634 7L430 0L420 70Q417 67 410.50 61.50Q404 56 385 42Q366 28 346 17.50Q326 7 297.50-1.50Q269-10 243-10Q168-10 128.50 37Q89 84 89 169M476 745L234 598L185 671L408 849L476 745Z"  horiz-adv-x="655" vert-adv-y="1000"  />

      
      <glyph glyph-name="unifb" unicode="&#xfb;" d="M89 169L89 434L16 452L16 532L237 540L237 197Q237 156 250 136.50Q263 117 293 117Q321 117 350.50 130.50Q380 144 396 158L411 172L411 434L337 452L337 532L558 540L558 105L634 85L634 7L430 0L420 70Q417 67 410.50 61.50Q404 56 385 42Q366 28 346 17.50Q326 7 297.50-1.50Q269-10 243-10Q168-10 128.50 37Q89 84 89 169M320 724L152 604L104 670L268 823L357 831L532 670L484 604L320 724Z"  horiz-adv-x="655" vert-adv-y="1000"  />

      
      <glyph glyph-name="unifc" unicode="&#xfc;" d="M89 169L89 434L16 452L16 532L237 540L237 197Q237 156 250 136.50Q263 117 293 117Q321 117 350.50 130.50Q380 144 396 158L411 172L411 434L337 452L337 532L558 540L558 105L634 85L634 7L430 0L420 70Q417 67 410.50 61.50Q404 56 385 42Q366 28 346 17.50Q326 7 297.50-1.50Q269-10 243-10Q168-10 128.50 37Q89 84 89 169M132 698Q132 733 153.50 754.50Q175 776 206 776Q241 776 259.50 755.50Q278 735 278 698Q278 662 256.50 641Q235 620 204 620Q132 620 132 698M350 698Q350 733 372 754.50Q394 776 424 776Q496 776 496 698Q496 662 474.50 641Q453 620 422 620Q350 620 350 698Z"  horiz-adv-x="655" vert-adv-y="1000"  />

      
      <glyph glyph-name="unifd" unicode="&#xfd;" d="M241-1L63 439L10 455L10 535L277 540L277 455L221 445L310 165L395 442L337 455L337 535L606 540L606 455L544 442L397 32Q375-27 355.50-67.50Q336-108 304-151.50Q272-195 227-217.50Q182-240 125-240L28-232L42-125L107-125Q135-125 158.50-112.50Q182-100 198.50-76.50Q215-53 223-38Q231-23 241-1M521 745L279 598L230 671L453 849L521 745Z"  horiz-adv-x="611" vert-adv-y="1000"  />

      
      <glyph glyph-name="unife" unicode="&#xfe;" d="M25 767L255 775L255 492Q261 498 272.50 508Q284 518 321 534Q358 550 397 550Q495 550 547.50 479Q600 408 600 285Q600 144 528.50 67Q457-10 315-10Q303-10 288-8Q273-6 264-4L255-2L255-132L360-155L360-235L27-235L27-155L105-132L105 667L25 687L25 767M255 385L255 118Q280 105 331 105Q445 105 445 275Q445 432 347 432Q320 432 297 420Q274 408 264 396L255 385Z"  horiz-adv-x="615" vert-adv-y="1000"  />

      
      <glyph glyph-name="uniff" unicode="&#xff;" d="M241-1L63 439L10 455L10 535L277 540L277 455L221 445L310 165L395 442L337 455L337 535L606 540L606 455L544 442L397 32Q375-27 355.50-67.50Q336-108 304-151.50Q272-195 227-217.50Q182-240 125-240L28-232L42-125L107-125Q135-125 158.50-112.50Q182-100 198.50-76.50Q215-53 223-38Q231-23 241-1M123 712Q123 634 195 634Q226 634 247.50 655Q269 676 269 712Q269 749 250.50 769.50Q232 790 197 790Q166 790 144.50 768.50Q123 747 123 712M341 712Q341 634 413 634Q444 634 465.50 655Q487 676 487 712Q487 790 415 790Q385 790 363 768.50Q341 747 341 712M114 698Q114 733 135.50 754.50Q157 776 188 776Q223 776 241.50 755.50Q260 735 260 698Q260 662 238.50 641Q217 620 186 620Q114 620 114 698M332 698Q332 733 354 754.50Q376 776 406 776Q478 776 478 698Q478 662 456.50 641Q435 620 404 620Q332 620 332 698Z"  horiz-adv-x="611" vert-adv-y="1000"  />

      
      <glyph glyph-name="uni0105" unicode="&#x0105;" d="M570 7Q565 4 557-0.50Q549-5 529-19Q509-33 493.50-46.50Q478-60 465-77.50Q452-95 452-110Q452-127 462.50-136.50Q473-146 490-146L533-140L550-210Q502-235 447-235Q400-235 368.50-209.50Q337-184 337-135Q337-85 374-48Q411-11 441 2L372 0L354 65Q345 57 330 44.50Q315 32 272.50 11Q230-10 192-10Q119-10 78 31Q37 72 37 147Q37 312 277 312L347 312L347 367Q347 442 270 442Q247 442 225 438Q203 434 192 430L182 427L167 362L77 362L70 510Q191 550 287 550Q401 550 448 505.50Q495 461 495 352L495 105L570 87L570 7M181 162Q181 102 240 102Q264 102 290.50 116.50Q317 131 332 146L347 160L347 227L290 227Q232 227 206.50 211.50Q181 196 181 162Z"  horiz-adv-x="570" vert-adv-y="1000"  />

      
      <glyph glyph-name="uni0119" unicode="&#x0119;" d="M342-107Q342-125 352.50-135.50Q363-146 380-146L422-140L439-210Q392-235 337-235Q289-235 258-209.50Q227-184 227-137Q227-72 307-8Q289-10 280-10Q153-10 86.50 60.50Q20 131 20 260Q20 393 91 471.50Q162 550 287 550Q397 550 456 487Q515 424 515 315L509 240L177 237Q181 175 213.50 141Q246 107 297 107Q333 107 365 115.50Q397 124 427 138Q457 152 465 154L508 74Q481 55 449.50 29.50Q418 4 380-38.50Q342-81 342-107M277 433Q236 433 210.50 405Q185 377 179 330L359 330Q359 433 277 433Z"  horiz-adv-x="530" vert-adv-y="1000"  />

      
      <glyph glyph-name="uni0128" unicode="&#x0128;" d="M25 777L-23 816Q-21 820-18 827.50Q-15 835-3 854Q9 873 22 887.50Q35 902 57 914Q79 926 102 926Q138 926 192.50 903Q247 880 276 880Q293 880 310.50 890.50Q328 901 336 912L345 922L400 880Q398 876 394 869Q390 862 376.50 844Q363 826 348.50 812Q334 798 311 787Q288 776 265 776Q229 776 177.50 795.50Q126 815 97 815Q78 815 60 805.50Q42 796 34 786L25 777M340 87L340 0L35 0L35 87L110 112L110 587L35 617L35 700L340 705L340 617L265 587L265 112L340 87Z"  horiz-adv-x="375" vert-adv-y="1000"  />

      
      <glyph glyph-name="uni0129" unicode="&#x0129;" d="M15 630L-32 676Q-30 680-27 687.50Q-24 695-12.50 714Q-1 733 12.50 747.50Q26 762 47 774Q68 786 90 786Q124 786 171.50 763Q219 740 242 740Q258 740 274.50 750.50Q291 761 300 772L308 782L361 736Q359 732 356 724.50Q353 717 341 698Q329 679 316 665Q303 651 282 639Q261 627 239 627Q208 627 160 649Q112 671 85 671Q68 671 50.50 660.50Q33 650 24 640L15 630M35 532L262 540L262 105L332 80L332 0L35 0L35 80L115 105L115 432L35 452L35 532Z"  horiz-adv-x="358" vert-adv-y="1000"  />

      
      <glyph glyph-name="uni0131" unicode="&#x0131;" d="M35 532L262 540L262 105L332 80L332 0L35 0L35 80L115 105L115 432L35 452L35 532Z"  horiz-adv-x="358" vert-adv-y="1000"  />

      
      <glyph glyph-name="uni0140" unicode="&#x0140;" d="M25 767L256 775L256 105L351 80L351 0L25 0L25 80L105 105L105 667L25 687L25 767M402 350Q402 394 427 419Q452 444 492 444Q578 444 578 350Q578 306 553.50 281.50Q529 257 489 257Q402 257 402 350Z"  horiz-adv-x="657" vert-adv-y="1000"  />

      
      <glyph glyph-name="uni0141" unicode="&#x0141;" d="M302 587L302 438L439 499L471 392L302 317L302 117L455 117L477 230L572 230L572 0L72 0L72 87L147 112L147 254L70 220L38 327L147 375L147 587L72 617L72 700L377 705L377 617L302 587Z"  horiz-adv-x="585" vert-adv-y="1000"  />

      
      <glyph glyph-name="uni0142" unicode="&#x0142;" d="M67 767L298 775L298 468L398 512L421 401L298 347L298 105L393 80L393 0L67 0L67 80L147 105L147 286L56 246L25 352L147 406L147 667L67 687L67 767Z"  horiz-adv-x="431" vert-adv-y="1000"  />

      
      <glyph glyph-name="uni0152" unicode="&#x0152;" d="M614 310L614 117L791 117L814 200L906 200L906 0L546 0Q523 0 459-5Q395-10 362-10Q211-10 131.50 81Q52 172 52 347Q52 519 141 617Q230 715 382 715Q412 715 472.50 710Q533 705 559 705L894 705L894 512L801 512L776 587L614 587L614 420L816 420L816 310L614 310M459 117L459 587Q431 591 388 591Q302 591 261 538.50Q220 486 220 352Q220 229 256.50 170.50Q293 112 370 112Q390 112 422.50 114.50Q455 117 459 117Z"  horiz-adv-x="956" vert-adv-y="1000"  />

      
      <glyph glyph-name="uni0153" unicode="&#x0153;" d="M305 550Q424 550 491 464Q558 550 675 550Q783 550 841.50 487Q900 424 900 315L894 240L562 237Q566 175 598.50 141Q631 107 682 107Q718 107 750 115.50Q782 124 812 138Q842 152 850 154L893 74Q882 65 862 51Q842 37 783 13.50Q724-10 668-10Q543-10 480 77Q408-10 290-10Q37-10 37 265Q37 398 110 474Q183 550 305 550M302 435Q246 435 219 398Q192 361 192 270Q192 184 217.50 144.50Q243 105 297 105Q353 105 380 144.50Q407 184 407 275Q407 435 302 435M662 433Q621 433 595.50 405Q570 377 564 330L744 330Q744 433 662 433Z"  horiz-adv-x="930" vert-adv-y="1000"  />

      
      <glyph glyph-name="uni0160" unicode="&#x0160;" d="M297 851L436 957L486 897L343 750L253 750L100 897L156 957L297 851M162 217L177 133Q217 112 275 112Q326 112 361 133.50Q396 155 396 193Q396 220 371 240Q346 260 308.50 271Q271 282 227 300.50Q183 319 145.50 340.50Q108 362 83 404.50Q58 447 58 505Q58 606 128.50 661.50Q199 717 312 717Q362 717 417 707Q472 697 502 687L532 677L527 495L435 495L410 580Q365 595 322 595Q271 595 243.50 575Q216 555 216 524Q216 497 241 477Q266 457 303.50 445.50Q341 434 384.50 416Q428 398 465.50 377Q503 356 528 315Q553 274 553 219Q553 110 477.50 48.50Q402-13 283-13Q233-13 177-3.50Q121 6 90 16L60 25L60 217L162 217Z"  horiz-adv-x="605" vert-adv-y="1000"  />

      
      <glyph glyph-name="uni0161" unicode="&#x0161;" d="M133 175L141 105Q174 95 223 95Q302 95 302 149Q302 172 275 188.50Q248 205 209 217Q170 229 131 245.50Q92 262 65 296Q38 330 38 379Q38 467 97 508.50Q156 550 244 550Q284 550 330.50 542.50Q377 535 404 528L430 520Q428 470 426 370L338 370L323 435Q297 445 257 445Q226 445 208 431.50Q190 418 190 394Q190 371 217.50 355Q245 339 283.50 327Q322 315 361 299.50Q400 284 427.50 251Q455 218 455 170Q455 85 392.50 37.50Q330-10 225-10Q183-10 137-4.50Q91 1 66 6L41 12L41 175L133 175M240 724L379 830L429 770L286 623L197 623L44 770L99 830L240 724Z"  horiz-adv-x="491" vert-adv-y="1000"  />

      
      <glyph glyph-name="uni0178" unicode="&#x0178;" d="M485 87L485 0L180 0L180 87L255 112L255 244L72 590L7 617L7 700L290 705L290 617L239 596L339 379L445 595L390 617L390 700L660 705L660 617L591 590L410 245L410 112L485 87M148 848Q148 883 169.50 904.50Q191 926 222 926Q257 926 275.50 905.50Q294 885 294 848Q294 812 272.50 791Q251 770 220 770Q148 770 148 848M366 848Q366 883 388 904.50Q410 926 440 926Q512 926 512 848Q512 812 490.50 791Q469 770 438 770Q366 770 366 848Z"  horiz-adv-x="667" vert-adv-y="1000"  />

      
      <glyph glyph-name="uni017D" unicode="&#x017D;" d="M309 851L448 957L498 897L355 750L265 750L112 897L168 957L309 851M582 0L30 0L30 102L385 587L175 587L150 497L55 497L55 705L585 705L585 592L237 117L465 117L487 220L582 220L582 0Z"  horiz-adv-x="615" vert-adv-y="1000"  />

      
      <glyph glyph-name="uni017E" unicode="&#x017E;" d="M62 540L482 540L482 447L225 105L378 105L397 195L485 195L485 0L50 0L50 92L311 435L167 435L150 357L62 357L62 540M251 724L390 830L440 770L297 623L208 623L55 770L110 830L251 724Z"  horiz-adv-x="517" vert-adv-y="1000"  />

      
      <glyph glyph-name="uni0192" unicode="&#x0192;" d="M118 465L126 551Q136 664 188.50 722Q241 780 346 780L440 774L430 670L365 670Q318 670 300 648Q282 626 277 574L267 465L398 465L395 365L259 365L227 29Q216-84 164-142Q112-200 7-200L-67-194L-54-90L-12-90Q35-90 53-68Q71-46 76 6L109 365L27 365L28 450L118 465Z"  horiz-adv-x="440" vert-adv-y="1000"  />

      
      <glyph glyph-name="uni02C6" unicode="&#x02C6;" d="M275 733L118 635L70 701L223 832L312 840L474 701L426 635L275 733Z"  horiz-adv-x="544" vert-adv-y="1000"  />

      
      <glyph glyph-name="uni02C7" unicode="&#x02C7;" d="M261 724L400 830L450 770L307 623L218 623L65 770L120 830L261 724Z"  horiz-adv-x="515" vert-adv-y="1000"  />

      
      <glyph glyph-name="uni02D8" unicode="&#x02D8;" d="M56 765L143 774Q143 771 144.50 766Q146 761 151.50 748Q157 735 164.50 725.50Q172 716 187 708Q202 700 220 700Q251 700 270 716Q289 732 292 748L296 765L383 772Q383 689 333.50 642.50Q284 596 210 596Q144 596 100 641.50Q56 687 56 765Z"  horiz-adv-x="440" vert-adv-y="1000"  />

      
      <glyph glyph-name="uni02D9" unicode="&#x02D9;" d="M94.50 642Q94.50 642 84.75 652.50Q75 663 75 700Q75 737 96 758.50Q117 780 148 780Q182 780 202 759Q222 738 222 700Q222 664 200.50 642.50Q179 621 148 621Q114 621 94.50 642Z"  horiz-adv-x="297" vert-adv-y="1000"  />

      
      <glyph glyph-name="uni02DA" unicode="&#x02DA;" d="M72 704Q72 764 112.50 800.50Q153 837 206 837Q259 837 299 803Q339 769 339 710Q339 651 298.50 614Q258 577 206 577Q152 577 112 611Q72 645 72 704M157 707Q157 650 206 650Q227 650 240.50 665Q254 680 254 708Q254 765 206 765Q184 765 170.50 750Q157 735 157 707Z"  horiz-adv-x="411" vert-adv-y="1000"  />

      
      <glyph glyph-name="uni02DB" unicode="&#x02DB;" d="M170-110Q170-146 207-146L250-140L267-210Q220-235 165-235Q117-235 86-209.50Q55-184 55-135Q55-110 66.50-86Q78-62 94-46.50Q110-31 126-18.50Q142-6 154 0L165 5L285 5Q280 2 272.50-2.50Q265-7 245-20.50Q225-34 210-47Q195-60 182.50-77.50Q170-95 170-110Z"  horiz-adv-x="310" vert-adv-y="1000"  />

      
      <glyph glyph-name="uni02DC" unicode="&#x02DC;" d="M127 630L80 676Q82 680 85 687.50Q88 695 100 714Q112 733 125 747.50Q138 762 160 774Q182 786 205 786Q241 786 291.50 763Q342 740 371 740Q388 740 405.50 750.50Q423 761 432 772L440 782L493 736Q491 732 487.50 724.50Q484 717 472.50 698Q461 679 447.50 665Q434 651 412.50 639Q391 627 368 627Q332 627 280.50 649Q229 671 200 671Q181 671 163 660.50Q145 650 136 640L127 630Z"  horiz-adv-x="568" vert-adv-y="1000"  />

      
      <glyph glyph-name="uni02DD" unicode="&#x02DD;" d="M563 795L368 626L305 688L482 878L563 795M338 795L143 626L80 688L257 878L338 795Z"  horiz-adv-x="623" vert-adv-y="1000"  />

      
      <glyph glyph-name="uni0394" unicode="&#x0394;" d="M17 100L276 723L409 723L661 100L661 0L17 0L17 100M331 560L152 112L510 112L331 560Z"  horiz-adv-x="679" vert-adv-y="1000"  />

      
      <glyph glyph-name="uni2206" unicode="&#x2206;" d="M17 100L276 723L409 723L661 100L661 0L17 0L17 100M331 560L152 112L510 112L331 560Z"  horiz-adv-x="679" vert-adv-y="1000"  />

      
      <glyph glyph-name="uni03C0" unicode="&#x03C0;" d="M672 117L707 47Q699 41 684 31.50Q669 22 627 6Q585-10 546-10Q485-10 446 34Q407 78 407 170L407 427L247 427L247 0L100 0L100 430L22 452L22 530L235 540L635 540L635 452L554 432L554 164Q554 101 604 101Q617 101 634 105Q651 109 662 113L672 117Z"  horiz-adv-x="690" vert-adv-y="1000"  />

      
      <glyph glyph-name="uni2013" unicode="&#x2013;" d="M0 267L0 385L500 385L500 267L0 267Z"  horiz-adv-x="500" vert-adv-y="1000"  />

      
      <glyph glyph-name="uni2014" unicode="&#x2014;" d="M0 267L0 385L970 385L970 267L0 267Z"  horiz-adv-x="970" vert-adv-y="1000"  />

      
      <glyph glyph-name="uni2018" unicode="&#x2018;" d="M232 523Q232 483 207.50 458.50Q183 434 146 434Q108 434 85 458Q62 482 62 527Q62 639 200 787L263 736Q203 656 203 615Q203 604 217.50 577Q232 550 232 523Z"  horiz-adv-x="311" vert-adv-y="1000"  />

      
      <glyph glyph-name="uni2019" unicode="&#x2019;" d="M47 486Q107 566 107 606Q107 618 92.50 645Q78 672 78 698Q78 738 102.50 762.50Q127 787 165 787Q203 787 225.50 763Q248 739 248 695Q248 583 111 434L47 486Z"  horiz-adv-x="311" vert-adv-y="1000"  />

      
      <glyph glyph-name="uni201A" unicode="&#x201A;" d="M47-158Q107-78 107-38Q107-26 92.50 1Q78 28 78 54Q78 94 102.50 118.50Q127 143 165 143Q203 143 225.50 119Q248 95 248 51Q248-61 111-210L47-158Z"  horiz-adv-x="311" vert-adv-y="1000"  />

      
      <glyph glyph-name="uni201C" unicode="&#x201C;" d="M465 523Q465 483 440.50 458.50Q416 434 378 434Q340 434 317.50 458Q295 482 295 527Q295 638 432 787L496 736Q436 656 436 615Q436 604 450.50 577Q465 550 465 523M232 523Q232 483 207.50 458.50Q183 434 146 434Q108 434 85 458Q62 482 62 527Q62 639 200 787L263 736Q203 656 203 615Q203 604 217.50 577Q232 550 232 523Z"  horiz-adv-x="543" vert-adv-y="1000"  />

      
      <glyph glyph-name="uni201D" unicode="&#x201D;" d="M47 486Q107 566 107 606Q107 618 92.50 645Q78 672 78 698Q78 738 102.50 762.50Q127 787 165 787Q203 787 225.50 763Q248 739 248 695Q248 583 111 434L47 486M280 486Q340 566 340 606Q340 618 325.50 645Q311 672 311 698Q311 738 335.50 762.50Q360 787 397 787Q435 787 458 763Q481 739 481 695Q481 582 343 434L280 486Z"  horiz-adv-x="543" vert-adv-y="1000"  />

      
      <glyph glyph-name="uni201E" unicode="&#x201E;" d="M47-158Q107-78 107-38Q107-26 92.50 1Q78 28 78 54Q78 94 102.50 118.50Q127 143 165 143Q203 143 225.50 119Q248 95 248 51Q248-61 111-210L47-158M280-158Q340-78 340-38Q340-26 325.50 1Q311 28 311 54Q311 94 335.50 118.50Q360 143 397 143Q435 143 458 119Q481 95 481 51Q481-62 343-210L280-158Z"  horiz-adv-x="543" vert-adv-y="1000"  />

      
      <glyph glyph-name="uni2020" unicode="&#x2020;" d="M35 515L35 610L200 610L195 752L320 760L313 610L480 610L480 515L257 481L35 515M195 51L179 443L257 426L336 443L320 51L257 0L195 51Z"  horiz-adv-x="515" vert-adv-y="1000"  />

      
      <glyph glyph-name="uni2021" unicode="&#x2021;" d="M35 515L35 610L200 610L195 752L320 760L313 610L480 610L480 515L257 481L35 515M195 51L186 286L257 270L329 286L320 51L257 0L195 51M81 361L81 460L257 431L433 460L433 361L257 319L81 361Z"  horiz-adv-x="515" vert-adv-y="1000"  />

      
      <glyph glyph-name="uni2022" unicode="&#x2022;" d="M135.50 181.50Q135.50 181.50 107.75 209.25Q80 237 80 315Q80 393 135.50 448.50Q191 504 269 504Q347 504 402.50 448.50Q458 393 458 315Q458 237 402.50 181.50Q347 126 269 126Q191 126 135.50 181.50Z"  horiz-adv-x="543" vert-adv-y="1000"  />

      
      <glyph glyph-name="uni2026" unicode="&#x2026;" d="M52 78Q52 119 77.50 143.50Q103 168 139 168Q222 168 222 78Q222 36 197 11.50Q172-13 136-13Q95-13 73.50 10.50Q52 34 52 78M305 78Q305 119 330.50 143.50Q356 168 391 168Q432 168 453.50 144.50Q475 121 475 78Q475 36 450 11.50Q425-13 389-13Q348-13 326.50 10.50Q305 34 305 78M557 78Q557 119 582.50 143.50Q608 168 644 168Q727 168 727 78Q727 36 702 11.50Q677-13 641-13Q600-13 578.50 10.50Q557 34 557 78Z"  horiz-adv-x="780" vert-adv-y="1000"  />

      
      <glyph glyph-name="uni2030" unicode="&#x2030;" d="M909 165Q909 252 960 302.50Q1011 353 1089 353Q1165 353 1211.50 307Q1258 261 1258 176Q1258 90 1207 38Q1156-14 1077-14Q1000-14 954.50 30.50Q909 75 909 165M1024 169Q1024 73 1082 73Q1143 73 1143 172Q1143 267 1084 267Q1024 267 1024 169M179-8L597 712L742 712L324-8L179-8M55 529Q55 616 106 666.50Q157 717 235 717Q311 717 357.50 671Q404 625 404 540Q404 454 353 402Q302 350 223 350Q146 350 100.50 394.50Q55 439 55 529M170 533Q170 437 228 437Q289 437 289 536Q289 631 230 631Q170 631 170 533M519 165Q519 252 570 302.50Q621 353 699 353Q775 353 821.50 307Q868 261 868 176Q868 90 817 38Q766-14 687-14Q610-14 564.50 30.50Q519 75 519 165M634 169Q634 73 692 73Q753 73 753 172Q753 267 694 267Q634 267 634 169Z"  horiz-adv-x="1313" vert-adv-y="1000"  />

      
      <glyph glyph-name="uni2039" unicode="&#x2039;" d="M176 265L289 105L206 49L50 226L50 303L206 480L289 425L176 265Z"  horiz-adv-x="339" vert-adv-y="1000"  />

      
      <glyph glyph-name="uni203A" unicode="&#x203A;" d="M55 105L168 265L55 425L138 480L294 303L294 226L138 49L55 105Z"  horiz-adv-x="339" vert-adv-y="1000"  />

      
      <glyph glyph-name="uni2044" unicode="&#x2044;" d="M85-74L-15-7L524 772L624 705L85-74Z"  horiz-adv-x="614" vert-adv-y="1000"  />

      
      <glyph glyph-name="uni20AC" unicode="&#x20AC;" d="M473 580Q435 595 380 595Q349 595 325.50 581.50Q302 568 290 549Q278 530 270 510.50Q262 491 260 478L258 464L457 464L457 374L27 374L27 464L99 464Q108 514 127.50 556.50Q147 599 180 636.50Q213 674 265.50 695.50Q318 717 385 717Q432 717 482.50 706.50Q533 696 560 686L587 675L582 510L489 510L473 580M27 221L27 311L457 311L457 221L265 221Q295 116 392 116Q430 116 470 130Q510 144 531 158L552 173L607 85Q603 81 596 74.50Q589 68 565 51.50Q541 35 515 22Q489 9 449.50-1.50Q410-12 370-12Q301-12 249 11Q197 34 168 72.50Q139 111 124.50 146Q110 181 102 221L27 221Z"  horiz-adv-x="637" vert-adv-y="1000"  />

      
      <glyph glyph-name="uni220F" unicode="&#x220F;" d="M252-235L110-235L110 595L32 617L32 695L250 705L702 705L702 617L622 595L622-235L480-235L480 592L252 592L252-235Z"  horiz-adv-x="735" vert-adv-y="1000"  />

      
      <glyph glyph-name="uni2211" unicode="&#x2211;" d="M32-235L32-132L296 238L27 603L27 705L559 705L559 512L466 512L441 592L199 592L454 252L187-122L455-122L471-37L569-37L569-235L32-235Z"  horiz-adv-x="614" vert-adv-y="1000"  />

      
      <glyph glyph-name="uni2212" unicode="&#x2212;" d="M50 230L50 347L530 347L530 230L50 230Z"  horiz-adv-x="580" vert-adv-y="1000"  />

      
      <glyph glyph-name="uni221A" unicode="&#x221A;" d="M68 426L10 442L10 525L192 530L310 148L490 770L707 775L707 691L599 673L382 0L219 0L68 426Z"  horiz-adv-x="697" vert-adv-y="1000"  />

      
      <glyph glyph-name="uni222B" unicode="&#x222B;" d="M104-247Q88-247 65-242.50Q42-238 27-234L12-230L21-133Q51-138 76-138Q115-138 130.50-110Q146-82 146-22Q146 45 140 205Q134 365 134 464Q134 526 142.50 571.50Q151 617 171 654.50Q191 692 229 711Q267 730 322 730Q340 730 363 725.50Q386 721 400 716L415 712Q407 646 404 613Q379 620 349 620Q310 620 294.50 592.50Q279 565 279 505Q279 437 285 277Q291 117 291 18Q291-115 251.50-181Q212-247 104-247Z"  horiz-adv-x="437" vert-adv-y="1000"  />

      
      <glyph glyph-name="uni2248" unicode="&#x2248;" d="M118 286L55 330Q57 335 61.50 343Q66 351 81 371.50Q96 392 113 407.50Q130 423 158 436Q186 449 216 449Q260 449 324.50 415Q389 381 423 381Q448 381 472.50 394.50Q497 408 508 422L520 436L585 392Q583 387 578.50 379Q574 371 558.50 350Q543 329 526 313Q509 297 482 284Q455 271 427 271Q384 271 314.50 305Q245 339 210 339Q186 339 163 325.50Q140 312 129 299L118 286M118 91L55 135Q57 140 61.50 148Q66 156 81 176.50Q96 197 113 212.50Q130 228 158 241Q186 254 216 254Q260 254 324.50 220Q389 186 423 186Q448 186 472.50 200Q497 214 508 228L520 241L585 197Q583 192 578.50 184Q574 176 558.50 155Q543 134 526 118Q509 102 482 89Q455 76 427 76Q384 76 314.50 110Q245 144 210 144Q186 144 163 131Q140 118 129 104L118 91Z"  horiz-adv-x="640" vert-adv-y="1000"  />

      
      <glyph glyph-name="uni2260" unicode="&#x2260;" d="M62 327L62 442L328 442L381 552L513 552L460 442L577 442L577 327L405 327L358 229L577 229L577 114L304 114L249 0L117 0L172 114L62 114L62 229L226 229L273 327L62 327Z"  horiz-adv-x="640" vert-adv-y="1000"  />

      
      <glyph glyph-name="uni2264" unicode="&#x2264;" d="M45-25L45 94L537 94L537-25L45-25M192 364L537 257L537 135L45 305L45 425L537 590L537 467L192 364Z"  horiz-adv-x="582" vert-adv-y="1000"  />

      
      <glyph glyph-name="uni2265" unicode="&#x2265;" d="M537 94L537-25L45-25L45 94L537 94M45 257L390 364L45 467L45 590L537 425L537 305L45 135L45 257Z"  horiz-adv-x="582" vert-adv-y="1000"  />

      
      <glyph glyph-name="uni25CA" unicode="&#x25CA;" d="M215-45L16 366L212 775L342 775L540 365L345-45L215-45M275 631L158 374L283 100L399 357L275 631Z"  horiz-adv-x="560" vert-adv-y="1000"  />

      
      <glyph glyph-name="uniFB01" unicode="&#xFB01;" d="M142 530L142 572Q142 678 202.50 732.50Q263 787 402 787Q461 787 521 777.50Q581 768 612 759L642 750L640 609L532 609L519 672Q461 680 412 680Q345 680 317.50 657Q290 634 290 590L290 530L662 540L662 105L732 80L732 0L445 0L445 80L515 105L515 432L290 432L290 105L363 80L363 0L62 0L62 80L142 105L142 432L52 432L52 515L142 530Z"  horiz-adv-x="757" vert-adv-y="1000"  />

      
      <glyph glyph-name="uniFB02" unicode="&#xFB02;" d="M142 530L142 577Q142 787 395 787Q456 787 523 780.50Q590 774 626 768L663 762L663 105L745 80L745 0L445 0L445 80L513 105L513 671Q456 680 407 680Q290 680 290 595L290 530L420 530L417 430L290 430L290 105L363 80L363 0L62 0L62 80L142 105L142 430L52 430L52 515L142 530Z"  horiz-adv-x="788" vert-adv-y="1000"  />

      

  </font>
</defs>
</svg>
